<svg aria-hidden="true" style="position: absolute; width: 0; height: 0; overflow: hidden;" version="1.1" xmlns="http://www.w3.org/2000/svg" xmlns:xlink="http://www.w3.org/1999/xlink">
<defs>
<symbol id="icon-oeff" viewBox="0 0 31 32">
<path d="M31.335 25.669c-0.151-0.721-0.578-1.322-1.163-1.699l-0.010-0.006c-0.407-0.266-0.905-0.424-1.44-0.424-0.213 0-0.42 0.025-0.619 0.073l0.018-0.004-3.272 0.749v-1.338c0.675-0.642 1.276-1.351 1.796-2.118l0.029-0.045c0.808-1.208 1.428-2.62 1.776-4.136l0.016-0.085c0.401-1.793 0.409-3.692 0.025-5.49-0.061-0.279-0.306-0.485-0.6-0.485-0.339 0-0.613 0.275-0.613 0.613 0 0.045 0.005 0.090 0.014 0.132l-0.001-0.004c0.163 0.731 0.256 1.571 0.256 2.433 0 0.898-0.101 1.772-0.293 2.612l0.015-0.078c-0.329 1.447-0.89 2.723-1.646 3.856l0.026-0.042c-0.267 0.399-0.531 0.744-0.813 1.071l0.012-0.014v-6.796c0-0.339-0.274-0.613-0.613-0.613h-4.85v-6.547c0-0.338-0.274-0.612-0.612-0.613l-5.465-0.018c-0.001 0-0.001 0-0.002 0-0.338 0-0.612 0.274-0.612 0.612 0 0 0 0.001 0 0.001v-0 3.406h-4.851c-0.338 0-0.613 0.274-0.613 0.613v6.072h-1.367v-0.833c0-0.338-0.274-0.613-0.613-0.613h-0.629c-0.101-0.527-0.167-1.143-0.183-1.771l-0-0.015c-0.003-0.091-0.004-0.197-0.004-0.304 0-1.763 0.396-3.433 1.104-4.927l-0.030 0.070c0.032-0.072 0.050-0.155 0.050-0.243 0-0.339-0.275-0.613-0.613-0.613-0.239 0-0.446 0.136-0.547 0.336l-0.002 0.003c-0.751 1.576-1.189 3.425-1.189 5.376 0 0.117 0.002 0.234 0.005 0.35l-0-0.017c0.015 0.587 0.071 1.175 0.166 1.756h-2.768c-0.339 0-0.613 0.274-0.613 0.613v10.777c0 0.338 0.274 0.613 0.613 0.613h4.641c0.338 0 0.613-0.275 0.613-0.613v-0.583h2.306l9.343 3.665c0.802 0.325 1.733 0.514 2.708 0.514 0.65 0 1.281-0.084 1.882-0.242l-0.051 0.011 7.323-1.861c1.167-0.302 2.015-1.345 2.015-2.587 0-0.194-0.021-0.383-0.060-0.565l0.003 0.018zM23.624 15.056v9.582l-1.639 0.375c-0.415 0.099-0.892 0.155-1.383 0.155-0.427 0-0.844-0.043-1.247-0.125l0.040 0.007-0.008-0.002v-0.93c0.467-0.697 0.622-1.582 0.377-2.388-0.091-0.296-0.219-0.554-0.382-0.785l0.006 0.009-0.001-0.002v-5.896h4.237zM13.923 7.88l4.237 0.014v12.085l-4.236-1.754v-10.345zM8.459 11.896h4.237v5.819l-0.76-0.314c-0.069-0.030-0.15-0.047-0.235-0.047h-3.242v-5.458zM4.64 26.686h-3.415v-9.551h3.415v9.551zM29.074 27.615l-7.323 1.861c-0.459 0.122-0.985 0.192-1.528 0.192-0.814 0-1.59-0.158-2.301-0.444l0.041 0.015-9.451-3.707c-0.066-0.026-0.142-0.041-0.222-0.041-0.001 0-0.002 0-0.003 0h-2.422v-6.91h5.713l6.138 2.54c0.768 0.318 1.135 1.22 0.821 1.986-0.063 0.154-0.142 0.3-0.245 0.431-0.292 0.366-0.738 0.598-1.238 0.598-0.131 0-0.258-0.016-0.38-0.046l0.011 0.002-0.014-0.004c-0.047-0.012-0.082-0.022-0.117-0.034l0.011 0.003-4.177-1.605c-0.071-0.031-0.154-0.049-0.241-0.049-0.339 0-0.613 0.275-0.613 0.613 0 0.267 0.171 0.495 0.41 0.579l0.004 0.001s2.326 0.895 4.1 1.579c0.019 0.008 0.054 0.021 0.090 0.034l0.017 0.005 1.362 0.524c0.412 0.158 0.821 0.316 1.25 0.425 0.55 0.146 1.181 0.23 1.831 0.23 0.141 0 0.281-0.004 0.42-0.012l-0.019 0.001c0.46-0.025 0.891-0.088 1.309-0.185l-0.051 0.010 6.137-1.405c0.098-0.024 0.21-0.037 0.326-0.037 0.289 0 0.559 0.086 0.784 0.233l-0.006-0.003c0.33 0.212 0.555 0.539 0.635 0.923 0.020 0.089 0.031 0.191 0.031 0.296 0 0.672-0.459 1.237-1.081 1.398l-0.010 0.002zM7.84 5.413c0.146 0 0.293-0.053 0.41-0.158 1.064-0.961 2.319-1.735 3.699-2.254l0.080-0.026c1.183-0.442 2.549-0.697 3.975-0.697 0.267 0 0.532 0.009 0.795 0.027l-0.036-0.002c1.147 0.076 2.272 0.321 3.342 0.729 0.065 0.025 0.14 0.040 0.218 0.040 0.339 0 0.613-0.275 0.613-0.613 0-0.26-0.162-0.482-0.391-0.572l-0.004-0.001c-1.088-0.427-2.347-0.715-3.66-0.804l-0.039-0.002c-0.251-0.017-0.544-0.027-0.84-0.027-1.577 0-3.088 0.283-4.485 0.8l0.089-0.029c-1.615 0.603-3.004 1.458-4.191 2.531l0.011-0.010c-0.125 0.113-0.203 0.275-0.203 0.456 0 0.338 0.274 0.613 0.613 0.613 0 0 0.001 0 0.001 0h-0z"></path>
<path d="M21.758 9.788c0.107 0.094 0.248 0.151 0.402 0.151 0.184 0 0.35-0.081 0.462-0.21l0.001-0.001 5.045-5.807c0.093-0.107 0.15-0.248 0.15-0.402 0-0.339-0.274-0.613-0.613-0.613-0.184 0-0.35 0.081-0.462 0.21l-0.001 0.001-5.045 5.807c-0.093 0.107-0.15 0.248-0.15 0.402 0 0.184 0.081 0.35 0.21 0.462l0.001 0.001zM26.279 7.167c-0.85 0.001-1.538 0.689-1.539 1.539v0c0.001 0.85 0.689 1.539 1.539 1.54h0c0.85-0.001 1.539-0.69 1.54-1.54v-0c-0.001-0.85-0.69-1.538-1.54-1.539h-0zM26.279 9.019c-0.004 0-0.009 0-0.014 0-0.173 0-0.313-0.14-0.313-0.313s0.14-0.313 0.313-0.313c0.005 0 0.010 0 0.014 0l-0.001-0c0.167 0.008 0.3 0.145 0.3 0.313s-0.133 0.306-0.299 0.313l-0.001 0zM22.874 5.803c0.85-0.001 1.539-0.69 1.54-1.54v-0c-0.001-0.85-0.69-1.538-1.54-1.539h-0c-0.85 0.001-1.539 0.689-1.54 1.539v0c0.001 0.85 0.69 1.539 1.54 1.54h0zM22.874 3.95c0.173 0 0.313 0.141 0.313 0.313s-0.14 0.313-0.313 0.313c-0 0-0 0-0.001 0h0c-0.173-0-0.313-0.141-0.313-0.313s0.14-0.313 0.313-0.313c0 0 0 0 0.001 0h-0zM5.661 6.854c0.098 0.236 0.34 0.391 0.596 0.378 0.254-0.013 0.475-0.184 0.553-0.425 0.018-0.056 0.029-0.12 0.029-0.186 0-0.198-0.093-0.374-0.237-0.487l-0.001-0.001c-0.103-0.078-0.233-0.125-0.374-0.125-0.127 0-0.244 0.038-0.342 0.103l0.002-0.001c-0.241 0.16-0.337 0.478-0.226 0.744z"></path>
</symbol>
<symbol id="icon-flag" viewBox="0 0 47 32">
<path fill="#fff" style="fill: var(--color1, #fff)" d="M1.445 1.74c0-0.842 0.682-1.524 1.524-1.524v0h42.519c0.842 0 1.524 0.682 1.524 1.524v0 7.642h-45.566v-7.642z"></path>
<path fill="#1f4782" style="fill: var(--color2, #1f4782)" d="M1.445 9.382h45.566v12.221h-45.566z"></path>
<path fill="#e03d22" style="fill: var(--color3, #e03d22)" d="M1.445 21.603h45.566v7.642c0 0.842-0.682 1.524-1.524 1.524v0h-42.519c-0.842 0-1.524-0.682-1.524-1.524v0-7.642z"></path>
<path fill="none" stroke="#cac7c7" style="stroke: var(--color4, #cac7c7)" stroke-linejoin="miter" stroke-linecap="butt" stroke-miterlimit="4" stroke-width="1.5238" d="M2.206 0.978h44.043v29.030h-44.043z"></path>
</symbol>
<symbol id="icon-form-exit" viewBox="0 0 32 32">
<path fill="#fff" style="fill: var(--color1, #fff)" d="M16.012 19.772l-10.686 10.684-3.772-3.77 10.686-10.686-10.684-10.686 3.77-3.77 10.686 10.684 10.684-10.684 3.772 3.77-10.688 10.686 10.686 10.686-3.772 3.77-10.684-10.684z"></path>
</symbol>
<symbol id="icon-lines" viewBox="0 0 33 32">
<path d="M12.48 5.542c-1.461-0.001-2.645-1.185-2.646-2.646v-0c0.002-1.461 1.185-2.644 2.646-2.646h0c1.46 0.002 2.644 1.185 2.646 2.645v0c-0.001 1.461-1.185 2.644-2.645 2.646h-0zM12.48 1.573c-0.73 0.001-1.322 0.592-1.323 1.322v0c0.001 0.73 0.593 1.322 1.323 1.323h0c0.73-0.001 1.322-0.593 1.323-1.323v-0c-0.002-0.73-0.593-1.321-1.323-1.322h-0zM8.896 15.185c-0.17 0-0.339-0.064-0.469-0.193l-5.675-5.675c-0.119-0.12-0.193-0.286-0.193-0.468v-3.969c0-0.365 0.296-0.662 0.662-0.662s0.662 0.296 0.662 0.662v0 3.695l5.482 5.482c0.119 0.12 0.192 0.285 0.192 0.467 0 0.365-0.296 0.661-0.661 0.662h-0z"></path>
<path d="M3.22 5.542c-1.461-0.002-2.644-1.185-2.646-2.646v-0c0.002-1.46 1.185-2.644 2.645-2.646h0c1.461 0.001 2.644 1.185 2.646 2.645v0c-0.001 1.461-1.185 2.645-2.646 2.646h-0zM3.22 1.573c-0.73 0.002-1.321 0.593-1.322 1.322v0c0.001 0.73 0.592 1.322 1.322 1.323h0c0.73-0.001 1.322-0.593 1.323-1.323v-0c-0.002-0.73-0.593-1.321-1.323-1.322h-0zM12.48 13.48c-0.365 0-0.661-0.297-0.661-0.662v-7.938c0.011-0.357 0.303-0.642 0.661-0.642s0.65 0.285 0.661 0.641l0 0.001v7.938c0 0.365-0.297 0.662-0.662 0.662zM16.687 14.564c-0.365-0.001-0.661-0.297-0.661-0.662 0-0.182 0.073-0.347 0.192-0.467l4.861-4.86v-3.695c0-0.365 0.296-0.662 0.662-0.662s0.662 0.296 0.662 0.662v0 3.968c0 0.176-0.070 0.344-0.193 0.469l-5.054 5.053c-0.13 0.128-0.299 0.193-0.468 0.193z"></path>
<path d="M21.741 5.542c-1.461-0.002-2.644-1.185-2.646-2.646v-0c0.002-1.46 1.185-2.644 2.645-2.646h0c1.461 0.001 2.644 1.185 2.646 2.645v0c-0.001 1.461-1.185 2.645-2.646 2.646h-0zM21.741 1.573c-0.73 0.001-1.321 0.593-1.322 1.322v0c0.001 0.73 0.592 1.322 1.322 1.323h0c0.73-0.001 1.322-0.593 1.323-1.323v-0c-0.002-0.73-0.593-1.321-1.323-1.322h-0zM24.259 31.602c-1.288 0-2.781-0.407-4.495-1.221-1.914-0.908-2.836-0.872-3.444-0.847-0.492 0.022-1.003 0.040-1.509-0.465-0.177-0.177-0.983-1.143 0.6-2.727 0.79-0.79 1.873-1.017 2.814-1.030l-5.485-5.485c-0.347-0.349-0.561-0.83-0.561-1.361 0-0.533 0.216-1.015 0.566-1.365v0c0.349-0.349 0.831-0.565 1.364-0.565 0.531 0 1.012 0.215 1.361 0.562l2.279 2.28c0.325-0.635 0.974-1.063 1.724-1.063 0.204 0 0.4 0.032 0.584 0.090l-0.014-0.004c0.274-0.754 0.984-1.284 1.818-1.284 0.481 0 0.921 0.176 1.259 0.467l-0.003-0.002c0.324-0.637 0.975-1.067 1.726-1.067 0.532 0 1.013 0.215 1.362 0.563l3.572 3.571c2.239 2.24 1.993 5.482-0.599 8.083l-0.005 0.004-0.017 0.019-1.482 1.483c-0.922 0.908-2.054 1.363-3.415 1.363zM16.678 28.202c0.722 0 1.832 0.119 3.654 0.983 3.949 1.873 5.549 0.962 6.412 0.112l1.5-1.5c1.576-1.591 2.663-4.148 0.61-6.202l-3.582-3.582c-0.11-0.11-0.262-0.178-0.429-0.178-0.335 0-0.607 0.272-0.607 0.607 0 0.167 0.068 0.319 0.177 0.429v0l0.893 0.893c0.119 0.12 0.193 0.286 0.193 0.468s-0.074 0.348-0.193 0.468l0-0c-0.12 0.12-0.285 0.194-0.468 0.194s-0.348-0.074-0.468-0.194v0l-2.083-2.084c-0.109-0.107-0.259-0.174-0.425-0.174-0.167 0-0.319 0.068-0.429 0.178v0c-0.111 0.11-0.179 0.262-0.179 0.43 0 0.166 0.067 0.316 0.175 0.426l1.488 1.488c0.119 0.12 0.193 0.286 0.193 0.468s-0.074 0.348-0.193 0.468l0-0c-0.12 0.12-0.285 0.194-0.468 0.194s-0.348-0.074-0.468-0.194v0l-2.083-2.084c-0.109-0.108-0.259-0.174-0.425-0.174-0.168 0-0.319 0.068-0.429 0.178l-0 0c-0.11 0.11-0.178 0.261-0.178 0.429 0 0.166 0.067 0.316 0.175 0.425l1.488 1.488c0.119 0.12 0.193 0.286 0.193 0.468s-0.074 0.348-0.193 0.468l0-0c-0.12 0.12-0.285 0.194-0.468 0.194s-0.348-0.074-0.468-0.194v0l-5.060-5.060c-0.11-0.11-0.262-0.178-0.429-0.178-0.335 0-0.607 0.272-0.607 0.607 0 0.167 0.068 0.319 0.177 0.429v0l6.846 6.846c0.214 0.215 0.255 0.545 0.101 0.805-0.118 0.195-0.329 0.323-0.571 0.323-0.066 0-0.129-0.010-0.189-0.027l0.005 0.001c-0.026-0.006-2.396-0.687-3.522 0.438-0.512 0.512-0.588 0.826-0.574 0.898 0.057 0.040 0.068 0.052 0.495 0.037 0.123-0.010 0.259-0.016 0.411-0.016z"></path>
<path d="M9.556 21.681c-0.153 0-0.314-0.053-0.433-0.151-1.185-0.973-1.935-2.437-1.935-4.077 0-0.002 0-0.004 0-0.005v0c0-2.918 2.374-5.292 5.292-5.292 0.783 0 1.524 0.164 2.203 0.488 0.215 0.112 0.359 0.334 0.359 0.588 0 0.366-0.296 0.662-0.662 0.662-0.096 0-0.188-0.021-0.271-0.058l0.004 0.002c-0.469-0.227-1.021-0.36-1.603-0.36-0.011 0-0.021 0-0.032 0h0.002c-2.191 0.003-3.967 1.778-3.969 3.969v0c0 1.175 0.518 2.279 1.421 3.035 0.168 0.12 0.279 0.316 0.279 0.537 0 0.367-0.29 0.662-0.655 0.662z"></path>
</symbol>
<symbol id="icon-logo" viewBox="0 0 87 32">
<path fill="#051115" style="fill: var(--color5, #051115)" opacity="0.4" d="M3.903 16.378h78.622v6.759h-78.622z"></path>
<path fill="#ff2400" style="fill: var(--color6, #ff2400)" d="M63.774 11.614c0.797 0 1.444-0.638 1.444-1.426s-0.646-1.426-1.444-1.426-1.444 0.638-1.444 1.426c0 0.788 0.646 1.426 1.444 1.426z"></path>
<path fill="#00cfa6" style="fill: var(--color7, #00cfa6)" d="M2.523 16.272h81.603v4.819c-0.005 1.242-0.509 2.366-1.321 3.182l0-0c-0.809 0.812-1.928 1.315-3.164 1.315h-72.634c-0.587 0.002-1.17-0.113-1.713-0.338-0.566-0.238-1.049-0.567-1.454-0.974l-0-0c-0.406-0.407-0.735-0.892-0.962-1.43l-0.011-0.030c-0.216-0.51-0.343-1.102-0.344-1.725v-4.819zM9.502 23.101c0.012 0 0.026 0 0.040 0 0.353 0 0.685-0.091 0.974-0.251l-0.010 0.005c0.294-0.173 0.532-0.413 0.695-0.701l0.005-0.009-0.598-0.382c-0.113 0.19-0.264 0.346-0.444 0.46l-0.005 0.003c-0.177 0.107-0.391 0.17-0.62 0.17-0.013 0-0.026-0-0.040-0.001l0.002 0c-0.005 0-0.011 0-0.016 0-0.195 0-0.38-0.042-0.547-0.117l0.008 0.003c-0.166-0.076-0.307-0.181-0.421-0.309l-0.001-0.001c-0.116-0.13-0.209-0.283-0.27-0.452l-0.003-0.010c-0.061-0.167-0.097-0.36-0.097-0.561 0-0.003 0-0.005 0-0.008v0c0-0.002 0-0.004 0-0.006 0-0.203 0.035-0.397 0.1-0.577l-0.004 0.012c0.060-0.171 0.152-0.329 0.27-0.465 0.117-0.135 0.261-0.243 0.422-0.319 0.158-0.074 0.344-0.116 0.539-0.116 0.007 0 0.013 0 0.020 0h-0.001c0.015-0.001 0.032-0.001 0.049-0.001 0.214 0 0.415 0.054 0.591 0.15l-0.006-0.003c0.197 0.107 0.357 0.259 0.47 0.443l0.003 0.005 0.601-0.393c-0.179-0.292-0.425-0.525-0.719-0.683l-0.010-0.005c-0.274-0.141-0.599-0.224-0.942-0.224-0.013 0-0.026 0-0.038 0l0.002-0c-0.003-0-0.007-0-0.011-0-0.306 0-0.598 0.065-0.861 0.181l0.014-0.005c-0.262 0.114-0.485 0.271-0.67 0.465l-0.001 0.001c-0.183 0.194-0.331 0.423-0.431 0.677l-0.005 0.014c-0.1 0.247-0.158 0.534-0.158 0.834 0 0.006 0 0.012 0 0.018v-0.001c-0.003 0.293 0.047 0.585 0.149 0.86 0.097 0.267 0.242 0.496 0.425 0.688l-0.001-0.001c0.183 0.192 0.405 0.345 0.652 0.449l0.013 0.005c0.248 0.101 0.535 0.16 0.836 0.16 0.017 0 0.034-0 0.052-0.001l-0.003 0zM14.945 19.56h1.276l-0.011-0.712h-3.32v0.712h1.265v3.463h0.791v-3.463zM20.353 22.134l0.353 0.889h0.839l-1.841-4.246h-0.347l-1.821 4.246h0.821l0.349-0.889h1.647zM24.435 23.023c0.506 0 0.882-0.105 1.138-0.319 0.128-0.108 0.229-0.245 0.296-0.399s0.097-0.322 0.088-0.49c0.002-0.021 0.002-0.045 0.002-0.069 0-0.233-0.079-0.447-0.211-0.618l0.002 0.002c-0.141-0.17-0.332-0.295-0.549-0.354l-0.008-0.002c0.153-0.079 0.283-0.197 0.376-0.342 0.079-0.148 0.125-0.324 0.125-0.511 0-0.312-0.129-0.594-0.336-0.795l-0-0c-0.242-0.176-0.546-0.282-0.874-0.282-0.035 0-0.069 0.001-0.103 0.003l0.005-0h-1.154v4.176h1.203zM28.585 20.981l1.731 2.042h1.004l-1.842-2.146 1.771-2.030h-0.925l-1.739 1.972v-1.972h-0.79v4.176h0.79v-2.042zM35.656 23.023h0.751l0.009-4.214h-0.352l-2.326 2.67v-2.632h-0.751v4.204h0.347l2.323-2.67v2.641zM44.089 23.023h0.79l0.005-4.176h-0.79v1.693h-1.956v-1.693h-0.791v4.176h0.791v-1.763h1.951v1.763zM49.396 22.134l0.35 0.889h0.838l-1.842-4.246h-0.346l-1.822 4.241h0.821l0.352-0.884h1.649zM56.861 23.101c0.013 0 0.027 0 0.042 0 0.354 0 0.686-0.091 0.975-0.251l-0.010 0.005h0.003c0.296-0.172 0.535-0.414 0.7-0.703l0.005-0.009-0.596-0.382c-0.114 0.188-0.266 0.342-0.447 0.455l-0.006 0.003c-0.178 0.107-0.392 0.17-0.621 0.17-0.013 0-0.026-0-0.038-0.001l0.002 0c-0.005 0-0.012 0-0.019 0-0.194 0-0.379-0.042-0.545-0.117l0.008 0.003c-0.166-0.076-0.307-0.181-0.422-0.309l-0.001-0.001c-0.116-0.13-0.208-0.284-0.269-0.452l-0.003-0.010c-0.061-0.165-0.096-0.355-0.096-0.553 0-0.005 0-0.011 0-0.016v0.001c-0-0.004-0-0.009-0-0.014 0-0.2 0.035-0.392 0.1-0.569l-0.004 0.012c0.059-0.171 0.15-0.329 0.269-0.465 0.116-0.133 0.257-0.241 0.416-0.315l0.008-0.003c0.158-0.074 0.342-0.116 0.537-0.116 0.007 0 0.015 0 0.022 0h-0.001c0.011-0 0.023-0 0.036-0 0.218 0 0.422 0.056 0.6 0.155l-0.006-0.003c0.195 0.108 0.353 0.261 0.465 0.444l0.003 0.005 0.6-0.389c-0.178-0.292-0.425-0.526-0.719-0.683l-0.010-0.005c-0.273-0.141-0.596-0.223-0.939-0.223-0.013 0-0.027 0-0.040 0l0.002-0c-0.007-0-0.015-0-0.024-0-0.302 0-0.59 0.063-0.85 0.176l0.014-0.005c-0.262 0.114-0.484 0.271-0.67 0.465l-0.001 0.001c-0.183 0.194-0.331 0.423-0.431 0.677l-0.005 0.014c-0.1 0.249-0.158 0.538-0.158 0.84 0 0.004 0 0.008 0 0.012v-0.001c-0.003 0.293 0.047 0.585 0.147 0.86 0.093 0.255 0.238 0.488 0.423 0.685 0.184 0.192 0.406 0.346 0.654 0.451l0.013 0.005c0.247 0.101 0.534 0.16 0.834 0.16 0.018 0 0.036-0 0.054-0.001l-0.003 0zM62.941 23.023h0.777l0.001-4.176h-3.388v4.176h0.79v-3.463h1.82v3.463zM69.207 22.475c0.186-0.192 0.335-0.422 0.434-0.676l0.005-0.014h0.003c0.098-0.247 0.155-0.533 0.155-0.832 0-0.008-0-0.017-0-0.025v0.001c0-0.005 0-0.011 0-0.017 0-0.299-0.054-0.585-0.153-0.85l0.005 0.017c-0.099-0.268-0.243-0.498-0.425-0.692l0.001 0.001c-0.185-0.195-0.408-0.351-0.657-0.457l-0.013-0.005c-0.251-0.106-0.543-0.168-0.849-0.168-0.011 0-0.022 0-0.033 0l0.002-0c-0.007-0-0.015-0-0.023-0-0.299 0-0.583 0.062-0.841 0.173l0.014-0.005c-0.262 0.114-0.484 0.269-0.67 0.461l-0.001 0.001c-0.185 0.193-0.334 0.423-0.434 0.677l-0.005 0.014c-0.1 0.249-0.158 0.538-0.158 0.84 0 0.004 0 0.007 0 0.011v-0.001c-0 0.006-0 0.013-0 0.020 0 0.3 0.054 0.587 0.153 0.852l-0.005-0.017c0.092 0.257 0.237 0.492 0.424 0.69 0.185 0.192 0.407 0.347 0.654 0.454l0.013 0.005c0.25 0.106 0.54 0.168 0.845 0.168 0.012 0 0.024-0 0.036-0l-0.002 0c0.006 0 0.013 0 0.021 0 0.3 0 0.586-0.062 0.845-0.173l-0.014 0.005c0.262-0.113 0.486-0.268 0.673-0.458l0-0zM72.92 21.596c0.492-0.005 0.871-0.132 1.135-0.382h0.003c0.245-0.238 0.396-0.57 0.396-0.938 0-0.029-0.001-0.058-0.003-0.087l0 0.004c0.001-0.021 0.002-0.046 0.002-0.070 0-0.361-0.149-0.687-0.389-0.921l-0-0c-0.259-0.236-0.637-0.353-1.134-0.353h-1.276v4.182h0.79v-1.434h0.474zM78.156 19.56h1.276l-0.003-0.712h-3.32v0.712h1.265v3.463h0.783v-3.463zM68.202 19.698c0.152 0.065 0.289 0.162 0.399 0.284 0.112 0.126 0.2 0.272 0.256 0.43 0.12 0.347 0.12 0.723 0 1.070-0.057 0.158-0.144 0.304-0.256 0.431-0.11 0.123-0.246 0.22-0.399 0.284-0.148 0.064-0.321 0.102-0.502 0.102-0.006 0-0.012-0-0.018-0h0.001c-0.006 0-0.013 0-0.020 0-0.18 0-0.35-0.037-0.505-0.105l0.008 0.003c-0.156-0.068-0.288-0.164-0.395-0.283l-0.001-0.001c-0.109-0.121-0.195-0.264-0.252-0.421l-0.003-0.009c-0.058-0.159-0.091-0.343-0.091-0.535s0.034-0.376 0.095-0.546l-0.004 0.011c0.056-0.158 0.142-0.305 0.255-0.431 0.108-0.12 0.24-0.216 0.389-0.281l0.007-0.003c0.146-0.064 0.317-0.102 0.497-0.102 0.007 0 0.014 0 0.022 0h-0.001c0.005-0 0.011-0 0.018-0 0.181 0 0.354 0.037 0.51 0.105l-0.008-0.003zM18.983 21.387h1.097l-0.546-1.279-0.552 1.279zM24.549 21.281h-0.518v1.017h0.485c0.023 0.002 0.050 0.003 0.077 0.003 0.195 0 0.377-0.052 0.534-0.144l-0.005 0.003c0.062-0.045 0.112-0.101 0.144-0.164s0.048-0.131 0.044-0.2c0-0.005 0-0.012 0-0.018 0-0.068-0.016-0.132-0.044-0.188l0.001 0.002c-0.034-0.068-0.081-0.126-0.138-0.171l-0.001-0.001c-0.139-0.090-0.309-0.143-0.491-0.143-0.031 0-0.062 0.002-0.093 0.005l0.004-0zM48.062 21.387h1.024l-0.509-1.279-0.515 1.279zM24.912 20.278c-0.027 0.064-0.066 0.118-0.115 0.162l-0 0c-0.129 0.103-0.292 0.154-0.457 0.141h-0.308v-0.982h0.308c0.016-0.001 0.035-0.002 0.054-0.002 0.151 0 0.291 0.049 0.405 0.131l-0.002-0.001c0.091 0.079 0.149 0.195 0.149 0.324 0 0.011-0 0.022-0.001 0.032l0-0.001c0.005 0.067-0.006 0.134-0.032 0.197zM72.934 19.599h-0.486v1.384h0.486c0.018 0.001 0.040 0.002 0.062 0.002 0.201 0 0.385-0.069 0.531-0.184l-0.002 0.001c0.13-0.136 0.203-0.32 0.203-0.512s-0.073-0.376-0.203-0.512c-0.145-0.114-0.33-0.182-0.53-0.182-0.021 0-0.043 0.001-0.064 0.002l0.003-0z"></path>
<path fill="#ff2400" style="fill: var(--color6, #ff2400)" d="M18.229 2.852c-0.002 0.533-0.224 1.013-0.58 1.355l-0.001 0.001c-0.362 0.348-0.854 0.562-1.397 0.562-0.002 0-0.004 0-0.006 0h0c-0.002 0-0.003 0-0.005 0-0.543 0-1.035-0.214-1.398-0.562l0.001 0.001c-0.357-0.342-0.579-0.823-0.581-1.355v-0c0-0.508 0.209-0.996 0.581-1.355 0.362-0.348 0.854-0.562 1.397-0.562 0.002 0 0.004 0 0.005 0h-0c0.526 0 1.030 0.202 1.402 0.562 0.357 0.342 0.579 0.823 0.581 1.355v0zM18.229 5.91h-3.966v9.221h3.966v-9.221zM37.487 9.808v-3.898h-6.314v3.898h6.314z"></path>
<path fill="#ff2400" style="fill: var(--color6, #ff2400)" d="M7.869 11.61c2.953 0 5.346-2.39 5.346-5.338s-2.394-5.338-5.346-5.338-5.346 2.39-5.346 5.338v8.858h3.867v-8.858c0.001-0.816 0.662-1.476 1.478-1.476 0 0 0.001 0 0.001 0h-0c0 0 0.001 0 0.001 0 0.816 0 1.477 0.661 1.478 1.477v0c-0 0.816-0.662 1.477-1.478 1.477-0.121 0-0.239-0.015-0.352-0.042l0.010 0.002v3.89c0.113 0.007 0.227 0.011 0.341 0.011zM55.842 11.61c2.952 0 5.346-2.39 5.346-5.338s-2.394-5.338-5.346-5.338c-2.953 0-5.346 2.39-5.346 5.338v8.858h3.867v-8.858c0.001-0.816 0.662-1.476 1.478-1.476 0 0 0.001 0 0.001 0h-0c0 0 0.001 0 0.001 0 0.816 0 1.477 0.661 1.478 1.477v0c-0 0.816-0.662 1.477-1.478 1.477-0.121 0-0.239-0.015-0.352-0.042l0.010 0.002v3.89c0.113 0.007 0.227 0.011 0.341 0.011zM30.031 6.273v8.858h-3.867v-8.744c0-0.392-0.156-0.767-0.433-1.044-0.268-0.267-0.637-0.432-1.046-0.432s-0.778 0.165-1.046 0.433l0-0c-0.268 0.267-0.433 0.636-0.433 1.044v0 8.745h-3.867v-8.859c0-2.948 2.393-5.338 5.346-5.338s5.346 2.39 5.346 5.338zM38.693 9.793v-8.858h3.867v8.745c0 0.392 0.156 0.767 0.433 1.044 0.268 0.267 0.637 0.432 1.045 0.432s0.778-0.165 1.046-0.432l-0 0c0.268-0.267 0.433-0.636 0.433-1.044v-8.745h3.867v8.858c0 2.948-2.393 5.338-5.346 5.338s-5.346-2.39-5.346-5.338zM76.1 7.599v-6.663h2.904v6.578c0 0.613 0.497 1.11 1.11 1.111h0c0.613 0 1.11-0.497 1.11-1.11 0-0 0-0 0-0.001v0-6.578h2.904v6.663c0 2.217-1.797 4.015-4.014 4.015s-4.014-1.798-4.014-4.015zM69.195 11.614v-8.52h0.907c0.345 0 0.657 0.14 0.882 0.366l0 0c0.226 0.226 0.366 0.539 0.366 0.884s-0.14 0.657-0.366 0.883v0c-1.222 0.991-1.222 0.568-1.222 2.037v0.741l2.426 3.608h3.245l-2.991-4.51c1.106-0.531 1.857-1.642 1.857-2.929 0-0.001 0-0.001 0-0.002v0c0-1.788-1.448-3.238-3.233-3.238h-4.707v10.679h2.836z"></path>
</symbol>
<symbol id="icon-money" viewBox="0 0 32 32">
<path d="M21.020 20.388c-0.744 0-1.349-0.523-1.349-1.167s0.604-1.167 1.349-1.167c0.744 0 1.349 0.524 1.349 1.167 0 0.339 0.275 0.613 0.613 0.613s0.613-0.275 0.613-0.613v0c0-1.124-0.837-2.068-1.963-2.325v-0.319c-0.011-0.33-0.281-0.594-0.613-0.594s-0.602 0.264-0.613 0.593l-0 0.001v0.319c-1.125 0.257-1.961 1.201-1.961 2.325 0 1.32 1.155 2.394 2.575 2.394 0.744 0 1.349 0.524 1.349 1.167s-0.605 1.167-1.349 1.167-1.349-0.524-1.349-1.167c0-0.339-0.275-0.613-0.613-0.613s-0.613 0.275-0.613 0.613v0c0 1.124 0.837 2.068 1.962 2.325v0.265c0 0.339 0.275 0.613 0.613 0.613s0.613-0.275 0.613-0.613v0-0.265c1.125-0.257 1.961-1.201 1.961-2.325 0-1.32-1.156-2.394-2.575-2.394zM27.737 16.741c-0.805-1.243-1.911-2.228-3.216-2.867l-0.047-0.021c-0.082-0.043-0.179-0.069-0.282-0.069-0.339 0-0.613 0.275-0.613 0.613 0 0.249 0.148 0.463 0.361 0.559l0.004 0.002c2.324 1.117 3.826 3.505 3.826 6.082 0 1.103-0.271 2.197-0.786 3.163-0.049 0.086-0.078 0.19-0.078 0.3 0 0.339 0.275 0.613 0.613 0.613 0.238 0 0.445-0.136 0.546-0.334l0.002-0.003c0.585-1.083 0.93-2.371 0.93-3.739v-0c0-1.53-0.435-3.016-1.258-4.299zM21.985 13.070h-0.041c-0.33 0.011-0.594 0.281-0.594 0.613s0.264 0.602 0.593 0.613l0.001 0h0.038c0 0 0.001 0 0.001 0 0.339 0 0.613-0.275 0.613-0.613s-0.274-0.613-0.612-0.613h-0zM18.105 27.122c-2.324-1.118-3.826-3.505-3.826-6.082 0-1.103 0.273-2.197 0.786-3.163 0.049-0.086 0.079-0.19 0.079-0.3 0-0.339-0.275-0.613-0.613-0.613-0.238 0-0.445 0.136-0.546 0.334l-0.002 0.003c-0.585 1.083-0.93 2.371-0.93 3.739v0c0 1.53 0.435 3.017 1.258 4.299 0.805 1.243 1.911 2.228 3.216 2.867l0.047 0.021c0.073 0.033 0.159 0.053 0.249 0.053 0.339 0 0.613-0.275 0.613-0.613 0-0.236-0.133-0.44-0.328-0.543l-0.003-0.002zM20.104 27.785h-0.036c-0.001 0-0.002 0-0.003 0-0.339 0-0.613 0.274-0.613 0.613 0 0.338 0.273 0.611 0.61 0.613h0.042c0.339 0 0.613-0.275 0.613-0.613s-0.275-0.613-0.613-0.613v0z"></path>
<path d="M23.807 10.996c-0.075-0.178-0.166-0.345-0.273-0.501h1.596c1.557-0.002 2.819-1.263 2.821-2.82v-0c-0.002-1.557-1.264-2.819-2.821-2.821h-4.91c0.31-0.444 0.495-0.996 0.495-1.591 0-0.001 0-0.003 0-0.004v0c-0.002-1.557-1.263-2.818-2.82-2.82h-15.022c-1.557 0.002-2.819 1.264-2.821 2.821v0c0.002 1.557 1.264 2.818 2.821 2.82h4.91c-0.31 0.445-0.495 0.996-0.495 1.591 0 0.001 0 0.002 0 0.004v-0c0 0.591 0.183 1.14 0.495 1.594h-1.599c-1.557 0.002-2.819 1.264-2.821 2.821v0c0 0.893 0.418 1.69 1.068 2.207-0.653 0.52-1.067 1.315-1.067 2.207s0.415 1.687 1.062 2.203l0.006 0.004c-0.653 0.52-1.067 1.315-1.067 2.207s0.415 1.687 1.062 2.203l0.006 0.004c-0.653 0.52-1.068 1.315-1.068 2.207v0c0.002 1.557 1.264 2.819 2.821 2.821h7.226c1.903 2.036 4.611 3.311 7.612 3.311 5.748 0 10.424-4.676 10.424-10.424 0-4.783-3.24-8.824-7.64-10.044zM25.131 6.081c0.88 0.001 1.593 0.714 1.594 1.594v0c-0.001 0.88-0.714 1.593-1.594 1.594h-15.022c-0.88-0.001-1.593-0.714-1.594-1.594v-0c0.001-0.88 0.714-1.593 1.594-1.594h15.022zM2.875 4.855c-0.88-0.001-1.593-0.714-1.594-1.594v-0c0.001-0.88 0.714-1.593 1.594-1.594h15.022c0.88 0.001 1.593 0.714 1.594 1.594v0c-0.001 0.88-0.714 1.593-1.594 1.594h-15.023zM6.185 10.496h15.022c0.247 0 0.483 0.057 0.695 0.16-0.265-0.024-0.574-0.038-0.885-0.038-2.881 0-5.487 1.172-7.37 3.065l-0.001 0.001h-7.462c-0.88-0.001-1.593-0.714-1.594-1.594v-0c0.001-0.88 0.714-1.593 1.594-1.594h0zM6.185 14.91h6.414c-0.672 0.911-1.211 1.971-1.557 3.115l-0.019 0.074h-4.838c-0.88-0.001-1.593-0.714-1.594-1.594v-0c0.001-0.88 0.714-1.593 1.594-1.594h0zM6.185 19.325h4.557c-0.090 0.516-0.142 1.111-0.142 1.717 0 0.519 0.038 1.029 0.111 1.528l-0.007-0.057h-4.519c-0.88-0.001-1.593-0.714-1.594-1.594v-0c0.001-0.88 0.714-1.593 1.594-1.594h0zM6.185 26.928c-0.88-0.001-1.593-0.714-1.594-1.594v-0c0.001-0.88 0.714-1.594 1.594-1.595h4.769c0.332 1.213 0.836 2.275 1.494 3.222l-0.022-0.034h-6.24zM21.023 30.239c-5.071 0-9.197-4.126-9.197-9.197s4.126-9.197 9.197-9.197 9.197 4.126 9.197 9.197c0 5.071-4.126 9.197-9.197 9.197z"></path>
</symbol>
</defs>
</svg>
