<svg aria-hidden="true" style="position:absolute;width:0;height:0" xmlns="http://www.w3.org/2000/svg" overflow="hidden"><defs><symbol id="icon-oeff" viewBox="0 0 31 32"><path d="M31.335 25.669a2.66 2.66 0 00-1.163-1.699l-.01-.006a2.632 2.632 0 00-1.44-.424c-.213 0-.42.025-.619.073l.018-.004-3.272.749V23.02a12.95 12.95 0 001.796-2.118l.029-.045a12.508 12.508 0 001.776-4.136l.016-.085c.401-1.793.409-3.692.025-5.49a.614.614 0 10-1.199.26l-.001-.004c.163.731.256 1.571.256 2.433 0 .898-.101 1.772-.293 2.612l.015-.078a11.447 11.447 0 01-1.646 3.856l.026-.042c-.267.399-.531.744-.813 1.071l.012-.014v-6.796a.612.612 0 00-.613-.613h-4.85V7.284a.613.613 0 00-.612-.613l-5.465-.018h-.002a.612.612 0 00-.612.612v3.407H7.843a.613.613 0 00-.613.613v6.072H5.863v-.833a.613.613 0 00-.613-.613h-.629a11.132 11.132 0 01-.183-1.771v-.015a11.473 11.473 0 011.1-5.231l-.03.07a.613.613 0 00-1.11-.52l-.002.003c-.751 1.576-1.189 3.425-1.189 5.376 0 .117.002.234.005.35v-.017c.015.587.071 1.175.166 1.756H.61a.612.612 0 00-.613.613v10.777c0 .338.274.613.613.613h4.641a.614.614 0 00.613-.613v-.583H8.17l9.343 3.665a7.263 7.263 0 002.708.514c.65 0 1.281-.084 1.882-.242l-.051.011 7.323-1.861a2.673 2.673 0 001.955-3.152l.003.018zm-7.711-10.613v9.582l-1.639.375a6.249 6.249 0 01-2.63.03l.04.007-.008-.002v-.93c.467-.697.622-1.582.377-2.388a2.742 2.742 0 00-.382-.785l.006.009-.001-.002v-5.896h4.237zM13.923 7.88l4.237.014v12.085l-4.236-1.754V7.88zm-5.464 4.016h4.237v5.819l-.76-.314a.594.594 0 00-.235-.047H8.459v-5.458zM4.64 26.686H1.225v-9.551H4.64v9.551zm24.434.929l-7.323 1.861a6.029 6.029 0 01-1.528.192 6.15 6.15 0 01-2.301-.444l.041.015-9.451-3.707a.61.61 0 00-.222-.041H5.865v-6.91h5.713l6.138 2.54a1.534 1.534 0 01.821 1.986 1.579 1.579 0 01-1.863.983l.011.002-.014-.004a1.47 1.47 0 01-.117-.034l.011.003-4.177-1.605a.613.613 0 10-.444 1.143l.004.001a7772.57 7772.57 0 004.19 1.613l.017.005 1.362.524c.412.158.821.316 1.25.425a7.237 7.237 0 002.251.218l-.019.001c.46-.025.891-.088 1.309-.185l-.051.01 6.137-1.405a1.43 1.43 0 011.11.196l-.006-.003a1.436 1.436 0 01.666 1.219c0 .672-.459 1.237-1.081 1.398l-.01.002zM7.84 5.413a.614.614 0 00.41-.158 11.643 11.643 0 013.699-2.254l.08-.026a11.453 11.453 0 013.975-.697c.267 0 .532.009.795.027l-.036-.002c1.147.076 2.272.321 3.342.729a.612.612 0 00.44-1.145l-.004-.001a12.43 12.43 0 00-3.66-.804l-.039-.002a12.897 12.897 0 00-5.325.773l.089-.029a12.926 12.926 0 00-4.191 2.531l.011-.01a.612.612 0 00.41 1.069h.001z"/><path d="M21.758 9.788a.61.61 0 00.864-.059l.001-.001 5.045-5.807a.612.612 0 00-.463-1.015.61.61 0 00-.462.21l-.001.001-5.045 5.807a.612.612 0 00.06.864l.001.001zm4.521-2.621a1.54 1.54 0 00-1.539 1.539c.001.85.689 1.539 1.539 1.54a1.542 1.542 0 001.54-1.54 1.541 1.541 0 00-1.54-1.539zm0 1.852h-.014a.313.313 0 110-.626h.014-.001a.313.313 0 01.001.626h-.001zm-3.405-3.216a1.542 1.542 0 001.54-1.54 1.541 1.541 0 00-3.08 0c.001.85.69 1.539 1.54 1.54zm0-1.853a.313.313 0 010 .626h-.001a.313.313 0 010-.626h.001zM5.661 6.854c.098.236.34.391.596.378a.617.617 0 00.582-.611.618.618 0 00-.237-.487l-.001-.001a.618.618 0 00-.716-.022l.002-.001a.617.617 0 00-.226.744z"/></symbol><symbol id="icon-flag" viewBox="0 0 47 32"><path fill="var(--color1, #fff)" d="M1.445 1.74c0-.842.682-1.524 1.524-1.524h42.519c.842 0 1.524.682 1.524 1.524v7.642H1.446V1.74z"/><path fill="var(--color2, #1f4782)" d="M1.445 9.382h45.566v12.221H1.445z"/><path fill="var(--color3, #e03d22)" d="M1.445 21.603h45.566v7.642c0 .842-.682 1.524-1.524 1.524H2.968a1.524 1.524 0 01-1.524-1.524v-7.642z"/><path fill="none" stroke="var(--color4, #cac7c7)" stroke-width="1.524" d="M2.206.978h44.043v29.03H2.206z"/></symbol><symbol id="icon-form-exit" viewBox="0 0 32 32"><path fill="var(--color1, #fff)" d="M16.012 19.772L5.326 30.456l-3.772-3.77L12.24 16 1.556 5.314l3.77-3.77 10.686 10.684L26.696 1.544l3.772 3.77L19.78 16l10.686 10.686-3.772 3.77L16.01 19.772z"/></symbol><symbol id="icon-lines" viewBox="0 0 33 32"><path d="M12.48 5.542a2.648 2.648 0 01-2.646-2.646A2.649 2.649 0 0112.48.25a2.65 2.65 0 012.646 2.645 2.648 2.648 0 01-2.645 2.646zm0-3.969a1.324 1.324 0 00-1.323 1.322c.001.73.593 1.322 1.323 1.323a1.325 1.325 0 001.323-1.323 1.325 1.325 0 00-1.323-1.322zM8.896 15.185a.662.662 0 01-.469-.193L2.752 9.317a.664.664 0 01-.193-.468V4.88a.662.662 0 011.324 0v3.695l5.482 5.482a.66.66 0 01-.469 1.129z"/><path d="M3.22 5.542A2.649 2.649 0 01.574 2.896 2.65 2.65 0 013.219.25a2.648 2.648 0 012.646 2.645 2.648 2.648 0 01-2.646 2.646zm0-3.969a1.325 1.325 0 00-1.322 1.322c.001.73.592 1.322 1.322 1.323a1.325 1.325 0 001.323-1.323A1.325 1.325 0 003.22 1.573zm9.26 11.907a.662.662 0 01-.661-.662V4.88a.662.662 0 011.322-.001v7.939a.663.663 0 01-.662.662zm4.207 1.084a.663.663 0 01-.469-1.129l4.861-4.86V4.88a.662.662 0 011.324 0v3.968c0 .176-.07.344-.193.469l-5.054 5.053a.666.666 0 01-.468.193z"/><path d="M21.741 5.542a2.649 2.649 0 01-2.646-2.646A2.65 2.65 0 0121.74.25a2.648 2.648 0 012.646 2.645 2.648 2.648 0 01-2.646 2.646zm0-3.969a1.324 1.324 0 00-1.322 1.322c.001.73.592 1.322 1.322 1.323a1.325 1.325 0 001.323-1.323 1.325 1.325 0 00-1.323-1.322zm2.518 30.029c-1.288 0-2.781-.407-4.495-1.221-1.914-.908-2.836-.872-3.444-.847-.492.022-1.003.04-1.509-.465-.177-.177-.983-1.143.6-2.727.79-.79 1.873-1.017 2.814-1.03l-5.485-5.485a1.924 1.924 0 01-.561-1.361c0-.533.216-1.015.566-1.365a1.925 1.925 0 012.725-.003l2.279 2.28a1.934 1.934 0 012.308-.973l-.014-.004a1.935 1.935 0 011.818-1.284c.481 0 .921.176 1.259.467l-.003-.002a1.934 1.934 0 011.726-1.067c.532 0 1.013.215 1.362.563l3.572 3.571c2.239 2.24 1.993 5.482-.599 8.083l-.005.004-.017.019-1.482 1.483c-.922.908-2.054 1.363-3.415 1.363zm-7.581-3.4c.722 0 1.832.119 3.654.983 3.949 1.873 5.549.962 6.412.112l1.5-1.5c1.576-1.591 2.663-4.148.61-6.202l-3.582-3.582a.605.605 0 00-1.036.429c0 .167.068.319.177.429l.893.893a.664.664 0 010 .936.659.659 0 01-.936 0l-2.083-2.084a.605.605 0 00-.854.004.603.603 0 00-.004.856l1.488 1.488a.664.664 0 010 .936.659.659 0 01-.936 0l-2.083-2.084a.604.604 0 00-.854.004.604.604 0 00-.003.854l1.488 1.488a.664.664 0 010 .936.659.659 0 01-.936 0l-5.06-5.06a.605.605 0 00-1.036.429c0 .167.068.319.177.429l6.846 6.846a.661.661 0 01-.659 1.101l.005.001c-.026-.006-2.396-.687-3.522.438-.512.512-.588.826-.574.898.057.04.068.052.495.037a5.06 5.06 0 01.411-.016z"/><path d="M9.556 21.681a.695.695 0 01-.433-.151 5.258 5.258 0 01-1.935-4.077v-.005a5.298 5.298 0 015.292-5.292c.783 0 1.524.164 2.203.488a.663.663 0 01-.574 1.192l.004.002a3.697 3.697 0 00-1.603-.36h-.032.002a3.974 3.974 0 00-3.969 3.969c0 1.175.518 2.279 1.421 3.035a.66.66 0 01-.376 1.199z"/></symbol><symbol id="icon-logo" viewBox="0 0 87 32"><path fill="var(--color5, #051115)" opacity=".4" d="M3.903 16.378h78.622v6.759H3.903z"/><path fill="var(--color6, #ff2400)" d="M63.774 11.614c.797 0 1.444-.638 1.444-1.426s-.646-1.426-1.444-1.426-1.444.638-1.444 1.426c0 .788.646 1.426 1.444 1.426z"/><path fill="var(--color7, #00cfa6)" d="M2.523 16.272h81.603v4.819a4.523 4.523 0 01-1.321 3.182 4.453 4.453 0 01-3.164 1.315H7.007a4.438 4.438 0 01-3.167-1.312 4.509 4.509 0 01-.962-1.43l-.011-.03a4.467 4.467 0 01-.344-1.725v-4.819zm6.979 6.829h.04c.353 0 .685-.091.974-.251l-.01.005a1.9 1.9 0 00.695-.701l.005-.009-.598-.382c-.113.19-.264.346-.444.46l-.005.003a1.2 1.2 0 01-.62.17l-.04-.001h.002-.016c-.195 0-.38-.042-.547-.117l.008.003a1.264 1.264 0 01-.421-.309l-.001-.001a1.387 1.387 0 01-.27-.452l-.003-.01a1.65 1.65 0 01-.097-.561v-.014c0-.203.035-.397.1-.577l-.004.012c.06-.171.152-.329.27-.465.117-.135.261-.243.422-.319.158-.074.344-.116.539-.116h.02H9.5l.049-.001c.214 0 .415.054.591.15l-.006-.003c.197.107.357.259.47.443l.003.005.601-.393a1.892 1.892 0 00-.719-.683l-.01-.005a2.068 2.068 0 00-.942-.224h-.038.002-.011c-.306 0-.598.065-.861.181l.014-.005a2.042 2.042 0 00-.67.465l-.001.001a2.12 2.12 0 00-.431.677l-.005.014a2.24 2.24 0 00-.158.834v.018-.001c-.003.293.047.585.149.86.097.267.242.496.425.688l-.001-.001c.183.192.405.345.652.449l.013.005c.248.101.535.16.836.16l.052-.001h-.003zm5.443-3.541h1.276l-.011-.712h-3.32v.712h1.265v3.463h.791V19.56zm5.408 2.574l.353.889h.839l-1.841-4.246h-.347l-1.821 4.246h.821l.349-.889h1.647zm4.082.889c.506 0 .882-.105 1.138-.319a1.091 1.091 0 00.384-.889c.002-.021.002-.045.002-.069 0-.233-.079-.447-.211-.618l.002.002a1.083 1.083 0 00-.549-.354l-.008-.002a.982.982 0 00.376-.342 1.105 1.105 0 00-.211-1.306 1.485 1.485 0 00-.977-.279h.005-1.154v4.176h1.203zm4.15-2.042l1.731 2.042h1.004l-1.842-2.146 1.771-2.03h-.925l-1.739 1.972v-1.972h-.79v4.176h.79v-2.042zm7.071 2.042h.751l.009-4.214h-.352l-2.326 2.67v-2.632h-.751v4.204h.347l2.323-2.67v2.641zm8.433 0h.79l.005-4.176h-.79v1.693h-1.956v-1.693h-.791v4.176h.791V21.26h1.951v1.763zm5.307-.889l.35.889h.838l-1.842-4.246h-.346l-1.822 4.241h.821l.352-.884h1.649zm7.465.967h.042c.354 0 .686-.091.975-.251l-.01.005h.003c.296-.172.535-.414.7-.703l.005-.009-.596-.382a1.37 1.37 0 01-.447.455l-.006.003c-.178.107-.392.17-.621.17l-.038-.001h.002-.019c-.194 0-.379-.042-.545-.117l.008.003a1.278 1.278 0 01-.422-.309l-.001-.001a1.395 1.395 0 01-.269-.452l-.003-.01a1.608 1.608 0 01-.096-.553v-.029c0-.2.035-.392.1-.569l-.004.012c.059-.171.15-.329.269-.465.116-.133.257-.241.416-.315l.008-.003a1.27 1.27 0 01.537-.116h.022-.001.036c.218 0 .422.056.6.155l-.006-.003c.195.108.353.261.465.444l.003.005.6-.389a1.877 1.877 0 00-.719-.683l-.01-.005a2.052 2.052 0 00-.939-.223h-.04.002-.024c-.302 0-.59.063-.85.176l.014-.005a2.053 2.053 0 00-.67.465l-.001.001a2.12 2.12 0 00-.431.677l-.005.014c-.1.249-.158.538-.158.84v.012-.001c-.003.293.047.585.147.86.093.255.238.488.423.685.184.192.406.346.654.451l.013.005c.247.101.534.16.834.16l.054-.001h-.003zm6.08-.078h.777l.001-4.176h-3.388v4.176h.79V19.56h1.82v3.463zm6.266-.548c.186-.192.335-.422.434-.676l.005-.014h.003c.098-.247.155-.533.155-.832v-.041c0-.299-.054-.585-.153-.85l.005.017a2.028 2.028 0 00-.425-.692l.001.001a1.968 1.968 0 00-.657-.457l-.013-.005a2.197 2.197 0 00-.849-.168h-.033.002-.023c-.299 0-.583.062-.841.173l.014-.005a2.074 2.074 0 00-.67.461l-.001.001a2.083 2.083 0 00-.434.677l-.005.014c-.1.249-.158.538-.158.84v.011-.001.02c0 .3.054.587.153.852l-.005-.017c.092.257.237.492.424.69.185.192.407.347.654.454l.013.005c.25.106.54.168.845.168h.036-.002.021c.3 0 .586-.062.845-.173l-.014.005c.262-.113.486-.268.673-.458zm3.713-.879c.492-.005.871-.132 1.135-.382h.003a1.302 1.302 0 00.393-1.025v.004l.002-.07c0-.361-.149-.687-.389-.921-.259-.236-.637-.353-1.134-.353h-1.276v4.182h.79v-1.434h.474zm5.236-2.036h1.276l-.003-.712h-3.32v.712h1.265v3.463h.783V19.56zm-9.954.138c.152.065.289.162.399.284.112.126.2.272.256.43.12.347.12.723 0 1.07a1.339 1.339 0 01-.256.431c-.11.123-.246.22-.399.284a1.274 1.274 0 01-.502.102h-.018.001-.02c-.18 0-.35-.037-.505-.105l.008.003a1.137 1.137 0 01-.395-.283l-.001-.001a1.283 1.283 0 01-.252-.421l-.003-.009a1.615 1.615 0 01.004-1.081l-.004.011c.056-.158.142-.305.255-.431.108-.12.24-.216.389-.281l.007-.003c.146-.064.317-.102.497-.102h.022-.001.018c.181 0 .354.037.51.105l-.008-.003zm-49.219 1.689h1.097l-.546-1.279-.552 1.279zm5.566-.106h-.518v1.017h.485a1.051 1.051 0 00.611-.141l-.005.003c.062-.045.112-.101.144-.164s.048-.131.044-.2v-.018a.42.42 0 00-.044-.188l.001.002a.504.504 0 00-.138-.171l-.001-.001a.904.904 0 00-.584-.138h.004zm23.513.106h1.024l-.509-1.279-.515 1.279zm-23.15-1.109a.451.451 0 01-.115.162.65.65 0 01-.457.141h-.308v-.982h.308a.692.692 0 01.459.129l-.002-.001a.429.429 0 01.149.324l-.001.032v-.001a.43.43 0 01-.032.197zm48.022-.679h-.486v1.384h.486l.062.002a.855.855 0 00.531-.184l-.002.001c.13-.136.203-.32.203-.512s-.073-.376-.203-.512a.856.856 0 00-.594-.18h.003z"/><path fill="var(--color6, #ff2400)" d="M18.229 2.852a1.882 1.882 0 01-.58 1.355l-.001.001a2.009 2.009 0 01-1.397.562h-.011a2.013 2.013 0 01-1.398-.562l.001.001a1.88 1.88 0 01-.581-1.355c0-.508.209-.996.581-1.355A2.009 2.009 0 0116.24.937h.005c.526 0 1.03.202 1.402.562.357.342.579.823.581 1.355zm0 3.058h-3.966v9.221h3.966V5.91zm19.258 3.898V5.91h-6.314v3.898h6.314zM7.869 11.61c2.953 0 5.346-2.39 5.346-5.338S10.821.934 7.869.934s-5.346 2.39-5.346 5.338v8.858H6.39V6.272a1.477 1.477 0 011.478-1.476h.002a1.478 1.478 0 11-.352 2.912l.01.002v3.89c.113.007.227.011.341.011zm47.973 0c2.952 0 5.346-2.39 5.346-5.338S58.794.934 55.842.934a5.342 5.342 0 00-5.346 5.338v8.858h3.867V6.272a1.477 1.477 0 011.478-1.476h.002a1.478 1.478 0 11-.352 2.912l.01.002v3.89c.113.007.227.011.341.011zM30.031 6.273v8.858h-3.867V6.387a1.476 1.476 0 00-1.479-1.476c-.409 0-.778.165-1.046.433a1.468 1.468 0 00-.433 1.044v8.745h-3.867V6.274c0-2.948 2.393-5.338 5.346-5.338s5.346 2.39 5.346 5.338zm8.662 3.52V.935h3.867V9.68a1.476 1.476 0 001.478 1.476 1.478 1.478 0 001.479-1.476V.935h3.867v8.858c0 2.948-2.393 5.338-5.346 5.338s-5.346-2.39-5.346-5.338zM76.1 7.599V.936h2.904v6.578a1.11 1.11 0 102.22.001V.936h2.904v6.663a4.015 4.015 0 11-8.028 0zm-6.905 4.015v-8.52h.907a1.247 1.247 0 01.882 2.133c-1.222.991-1.222.568-1.222 2.037v.741l2.426 3.608h3.245l-2.991-4.51a3.245 3.245 0 001.857-2.929v-.002A3.236 3.236 0 0071.066.934h-4.707v10.679h2.836z"/></symbol><symbol id="icon-money" viewBox="0 0 32 32"><path d="M21.02 20.388c-.744 0-1.349-.523-1.349-1.167s.604-1.167 1.349-1.167c.744 0 1.349.524 1.349 1.167a.613.613 0 001.226 0c0-1.124-.837-2.068-1.963-2.325v-.319a.614.614 0 00-1.226-.001v.32c-1.125.257-1.961 1.201-1.961 2.325 0 1.32 1.155 2.394 2.575 2.394.744 0 1.349.524 1.349 1.167s-.605 1.167-1.349 1.167-1.349-.524-1.349-1.167a.613.613 0 00-1.226 0c0 1.124.837 2.068 1.962 2.325v.265a.613.613 0 001.226 0v-.265c1.125-.257 1.961-1.201 1.961-2.325 0-1.32-1.156-2.394-2.575-2.394zm6.717-3.647a8.043 8.043 0 00-3.216-2.867l-.047-.021a.613.613 0 10-.534 1.103l.004.002a6.785 6.785 0 013.826 6.082 6.745 6.745 0 01-.786 3.163.613.613 0 101.081.579l.002-.003a7.888 7.888 0 00.93-3.739c0-1.53-.435-3.016-1.258-4.299zm-5.752-3.671h-.041a.614.614 0 00-.001 1.226h.04a.613.613 0 00.001-1.226zm-3.88 14.052a6.786 6.786 0 01-3.826-6.082c0-1.103.273-2.197.786-3.163a.613.613 0 10-1.08-.579l-.002.003a7.888 7.888 0 00-.93 3.739c0 1.53.435 3.017 1.258 4.299a8.043 8.043 0 003.216 2.867l.047.021a.613.613 0 00.534-1.103l-.003-.002zm1.999.663h-.039a.612.612 0 00-.003 1.226h.042a.613.613 0 000-1.226z"/><path d="M23.807 10.996a2.816 2.816 0 00-.273-.501h1.596a2.824 2.824 0 002.821-2.82 2.825 2.825 0 00-2.821-2.821h-4.91c.31-.444.495-.996.495-1.591v-.004a2.823 2.823 0 00-2.82-2.82H2.873A2.825 2.825 0 00.052 3.26a2.824 2.824 0 002.821 2.82h4.91a2.78 2.78 0 00-.495 1.591v.004c0 .591.183 1.14.495 1.594H6.184a2.825 2.825 0 00-2.821 2.821c0 .893.418 1.69 1.068 2.207-.653.52-1.067 1.315-1.067 2.207s.415 1.687 1.062 2.203l.006.004c-.653.52-1.067 1.315-1.067 2.207s.415 1.687 1.062 2.203l.006.004a2.812 2.812 0 00-1.068 2.207 2.825 2.825 0 002.821 2.821h7.226a10.394 10.394 0 007.612 3.311c5.748 0 10.424-4.676 10.424-10.424 0-4.783-3.24-8.824-7.64-10.044zm1.324-4.915c.88.001 1.593.714 1.594 1.594a1.596 1.596 0 01-1.594 1.594H10.109a1.596 1.596 0 01-1.594-1.594 1.596 1.596 0 011.594-1.594h15.022zM2.875 4.855a1.596 1.596 0 01-1.594-1.594 1.596 1.596 0 011.594-1.594h15.022c.88.001 1.593.714 1.594 1.594a1.596 1.596 0 01-1.594 1.594H2.874zm3.31 5.641h15.022c.247 0 .483.057.695.16a10.362 10.362 0 00-8.255 3.027l-.001.001H6.184A1.596 1.596 0 014.59 12.09a1.596 1.596 0 011.594-1.594zm0 4.414h6.414a10.286 10.286 0 00-1.557 3.115l-.019.074H6.185a1.596 1.596 0 01-1.594-1.594 1.596 1.596 0 011.594-1.594zm0 4.415h4.557a10.55 10.55 0 00-.031 3.245l-.007-.057H6.185a1.596 1.596 0 01-1.594-1.594 1.596 1.596 0 011.594-1.594zm0 7.603a1.596 1.596 0 01-1.594-1.594 1.597 1.597 0 011.594-1.595h4.769a10.385 10.385 0 001.494 3.222l-.022-.034h-6.24zm14.838 3.311c-5.071 0-9.197-4.126-9.197-9.197s4.126-9.197 9.197-9.197 9.197 4.126 9.197 9.197c0 5.071-4.126 9.197-9.197 9.197z"/></symbol></defs></svg>