<svg width="56" height="55" fill="none" xmlns="http://www.w3.org/2000/svg"><g clip-path="url(#a)" fill="#051115"><path d="M21.45 9.525a4.552 4.552 0 01-4.548-4.548A4.552 4.552 0 0121.45.43a4.552 4.552 0 014.547 4.547 4.552 4.552 0 01-4.547 4.548zm0-6.821a2.277 2.277 0 00-2.274 2.273 2.277 2.277 0 002.274 2.274 2.277 2.277 0 002.274-2.274 2.278 2.278 0 00-2.274-2.273zM15.29 26.1a1.14 1.14 0 01-.806-.331L4.73 16.015a1.145 1.145 0 01-.332-.805V8.388a1.137 1.137 0 012.274 0v6.35l9.422 9.423a1.138 1.138 0 01-.805 1.94z"/><path d="M5.534 9.525A4.552 4.552 0 01.987 4.977 4.552 4.552 0 015.534.43a4.552 4.552 0 014.548 4.547 4.552 4.552 0 01-4.548 4.548zm0-6.821a2.278 2.278 0 00-2.273 2.273 2.277 2.277 0 002.273 2.274 2.278 2.278 0 002.274-2.274 2.278 2.278 0 00-2.274-2.273zM21.45 23.168c-.627 0-1.136-.51-1.136-1.137V8.388a1.137 1.137 0 012.273 0v13.643c0 .627-.51 1.137-1.137 1.137zm7.23 1.864a1.138 1.138 0 01-.805-1.94l8.355-8.353v-6.35a1.137 1.137 0 012.274 0v6.82c0 .303-.121.592-.332.806L29.486 24.7c-.223.22-.514.332-.805.332z"/><path d="M37.367 9.525a4.552 4.552 0 01-4.547-4.548A4.552 4.552 0 0137.367.43a4.552 4.552 0 014.548 4.547 4.552 4.552 0 01-4.548 4.548zm0-6.821a2.277 2.277 0 00-2.273 2.273 2.277 2.277 0 002.273 2.274 2.277 2.277 0 002.274-2.274 2.278 2.278 0 00-2.274-2.273zm4.328 51.612c-2.214 0-4.78-.7-7.726-2.099-3.29-1.56-4.875-1.498-5.92-1.455-.846.038-1.724.068-2.593-.8-.304-.305-1.69-1.965 1.032-4.687 1.358-1.357 3.22-1.748 4.837-1.771l-9.427-9.427a3.316 3.316 0 01.007-4.684 3.316 3.316 0 014.684-.005l3.917 3.918a3.316 3.316 0 013.943-1.678 3.316 3.316 0 015.284-1.407 3.316 3.316 0 015.307-.866l6.14 6.138c3.849 3.85 3.426 9.423-1.03 13.893l-.008.007-.03.032-2.548 2.549c-1.585 1.56-3.531 2.342-5.869 2.342zm-13.03-5.844c1.241 0 3.149.205 6.28 1.69 6.787 3.22 9.538 1.653 11.02.193l2.56-2.56.019-.019c2.708-2.735 4.577-7.13 1.048-10.659l-6.157-6.157a1.042 1.042 0 00-1.476 1.473l1.535 1.535a1.142 1.142 0 010 1.61 1.138 1.138 0 01-1.608 0l-3.58-3.582a1.042 1.042 0 00-1.467.007 1.04 1.04 0 00-.007 1.47l2.558 2.557a1.142 1.142 0 010 1.61 1.138 1.138 0 01-1.608 0l-3.58-3.581a1.04 1.04 0 00-1.468.007 1.04 1.04 0 00-.006 1.468l2.558 2.558a1.142 1.142 0 010 1.61 1.138 1.138 0 01-1.608 0l-8.697-8.697a1.042 1.042 0 00-1.476 1.473l11.767 11.767c.368.369.439.937.173 1.383a1.143 1.143 0 01-1.298.511c-.044-.011-4.118-1.18-6.053.753-.88.88-1.01 1.42-.987 1.544.098.068.116.09.85.063.212-.018.446-.027.707-.027z"/><path d="M16.425 37.265c-.263 0-.54-.091-.745-.26a9.046 9.046 0 01-3.325-7.016c0-5.016 4.08-9.095 9.096-9.095a8.72 8.72 0 013.787.839 1.138 1.138 0 01-.98 2.053 6.441 6.441 0 00-2.807-.619 6.83 6.83 0 00-6.822 6.822c0 2.019.89 3.917 2.442 5.216.289.207.48.543.48.923 0 .63-.498 1.137-1.125 1.137z"/></g><defs><clipPath id="a"><path fill="#fff" transform="translate(.987 .43)" d="M0 0h54.57v54.57H0z"/></clipPath></defs></svg>