<svg width="24" height="24" fill="none" xmlns="http://www.w3.org/2000/svg"><g clip-path="url(#a)" fill="#fff"><path d="M23.377 18.879a1.962 1.962 0 00-.868-1.262A1.963 1.963 0 0021 17.354l-2.42.554v-.99a9.558 9.558 0 001.35-1.599 9.378 9.378 0 001.326-3.123 9.567 9.567 0 00.018-4.06.453.453 0 00-.887.19 8.65 8.65 0 01-.016 3.672 8.474 8.474 0 01-1.198 2.822 8.057 8.057 0 01-.593.782v-5.027a.453.453 0 00-.453-.454h-3.588V5.278a.454.454 0 00-.452-.453l-4.041-.014h-.002a.453.453 0 00-.453.454v2.519H6.003a.454.454 0 00-.454.454v4.49H4.54v-.615a.453.453 0 00-.454-.454H3.62a8.576 8.576 0 01.655-5.138.454.454 0 00-.822-.383A9.43 9.43 0 002.7 11.66H.653a.453.453 0 00-.454.453v7.972c0 .25.204.453.454.453h3.433c.25 0 .454-.203.454-.453v-.431h1.706l6.91 2.71a5.468 5.468 0 003.357.21l5.416-1.377a1.973 1.973 0 001.45-2.318zm-5.704-7.85v7.087l-1.212.278a4.606 4.606 0 01-1.915.028l-.007-.002v-.688a2.1 2.1 0 00.28-1.767 2.038 2.038 0 00-.28-.574v-4.362h3.134zm-7.175-5.31l3.134.011v8.939l-1.752-.725-1.382-.572V5.72zM6.456 8.692H9.59v4.305l-.562-.233a.452.452 0 00-.174-.034H6.456V8.69zm-2.825 10.94H1.106v-7.065H3.63v7.065zm18.074.687l-5.416 1.377a4.558 4.558 0 01-2.803-.175l-6.99-2.742a.454.454 0 00-.166-.031H4.54v-5.111h4.225l2.934 1.214 1.606.665c.568.236.84.902.607 1.47a1.17 1.17 0 01-1.37.729l-.01-.003a1.14 1.14 0 01-.079-.023l-3.051-1.173-.038-.015a.454.454 0 10-.326.847 3855.632 3855.632 0 003.112 1.196l1.008.388c.304.117.607.233.924.314a5.48 5.48 0 002.582.033l1.565-.358.005-.002 2.97-.68c.282-.064.573-.014.816.143a1.068 1.068 0 01-.314 1.938zM5.998 3.896a.452.452 0 00.303-.117 8.621 8.621 0 012.796-1.687 8.639 8.639 0 013.502-.497c.849.056 1.68.237 2.472.539a.453.453 0 10.323-.848A9.411 9.411 0 0012.658.69a9.552 9.552 0 00-3.872.55 9.536 9.536 0 00-3.092 1.865.453.453 0 00.304.79z"/><path d="M16.294 7.132a.452.452 0 00.64-.045l3.73-4.295a.453.453 0 10-.684-.595l-3.73 4.295a.453.453 0 00.045.64zm3.342-1.939a1.14 1.14 0 00-1.138 1.139c0 .628.51 1.138 1.138 1.138a1.14 1.14 0 000-2.277zm0 1.37a.232.232 0 110-.463.232.232 0 010 .463zm-2.517-2.379a1.14 1.14 0 001.138-1.139 1.14 1.14 0 10-1.139 1.139zm0-1.37a.232.232 0 11-.001.463.232.232 0 010-.464zM4.386 4.961c.073.175.251.29.44.28a.458.458 0 00.41-.314.457.457 0 00-.155-.499.458.458 0 00-.528-.017.457.457 0 00-.167.55z"/></g><defs><clipPath id="a"><path fill="#fff" transform="translate(.199 .08)" d="M0 0h23.221v23.221H0z"/></clipPath></defs></svg>