<svg width="31" height="21" fill="none" xmlns="http://www.w3.org/2000/svg"><g clip-path="url(#a)"><mask id="b" style="mask-type:alpha" maskUnits="userSpaceOnUse" x="0" y="0" width="31" height="21"><path d="M.948 2.142a2 2 0 0 1 2-2h25.903a2 2 0 0 1 2 2v16.05a2 2 0 0 1-2 2H2.948a2 2 0 0 1-2-2V2.142Z" fill="#D4D4D4"/></mask><g mask="url(#b)"><path d="M.948 1.142a1 1 0 0 1 1-1h27.903a1 1 0 0 1 1 1v5.015H.948V1.142Z" fill="#fff"/><path fill="#1F4782" d="M.948 6.157h29.903v8.02H.948z"/><path d="M.948 14.177h29.903v5.015a1 1 0 0 1-1 1H1.948a1 1 0 0 1-1-1v-5.015Z" fill="#E03D22"/></g></g><path stroke="#CAC7C7" d="M1.448.642h28.903v19.051H1.448z"/><defs><clipPath id="a"><path fill="#fff" d="M.948.142h29.903v20.051H.948z"/></clipPath></defs></svg>