<svg width="25" height="24" fill="none" xmlns="http://www.w3.org/2000/svg"><g clip-path="url(#a)" fill="#fff"><path d="M9.569 4.067c-1.1 0-1.994-.894-1.994-1.994C7.575.974 8.47.08 9.57.08c1.099 0 1.993.894 1.993 1.993 0 1.1-.894 1.994-1.993 1.994Zm0-2.99a.998.998 0 0 0-.997.996c0 .55.447.997.997.997.549 0 .996-.447.996-.997a.998.998 0 0 0-.996-.996ZM6.868 11.332a.5.5 0 0 1-.353-.145L2.239 6.91a.502.502 0 0 1-.145-.353v-2.99a.499.499 0 0 1 .996 0v2.784l4.13 4.13a.499.499 0 0 1-.352.85Z"/><path d="M2.592 4.067c-1.1 0-1.993-.894-1.993-1.994C.599.974 1.493.08 2.592.08c1.1 0 1.993.894 1.993 1.993 0 1.1-.894 1.994-1.993 1.994Zm0-2.99a.998.998 0 0 0-.997.996c0 .55.448.997.997.997.55 0 .997-.447.997-.997a.998.998 0 0 0-.997-.996ZM9.569 10.047a.499.499 0 0 1-.499-.499v-5.98a.499.499 0 0 1 .997 0v5.98a.499.499 0 0 1-.498.499ZM12.738 10.864a.499.499 0 0 1-.353-.85l3.662-3.662V3.568a.499.499 0 0 1 .997 0v2.99c0 .133-.053.26-.146.353l-3.807 3.807a.5.5 0 0 1-.353.146Z"/><path d="M16.545 4.067c-1.099 0-1.993-.894-1.993-1.994 0-1.099.894-1.993 1.993-1.993 1.1 0 1.994.894 1.994 1.993 0 1.1-.894 1.994-1.994 1.994Zm0-2.99a.998.998 0 0 0-.996.996c0 .55.447.997.996.997.55 0 .997-.447.997-.997a.998.998 0 0 0-.997-.996ZM18.443 23.7c-.97 0-2.095-.307-3.387-.92-1.442-.684-2.137-.657-2.595-.638-.37.017-.756.03-1.136-.35-.134-.134-.74-.862.452-2.055.595-.595 1.411-.766 2.12-.776l-4.132-4.132a1.453 1.453 0 0 1 2.056-2.056l1.717 1.718a1.454 1.454 0 0 1 1.728-.736 1.453 1.453 0 0 1 2.316-.617 1.453 1.453 0 0 1 2.326-.38l2.692 2.692c1.687 1.687 1.502 4.13-.452 6.09l-.003.002-.012.014-1.118 1.117c-.694.684-1.548 1.027-2.572 1.027Zm-5.712-2.561c.544 0 1.38.09 2.753.74 2.975 1.411 4.18.725 4.83.085l1.123-1.122.008-.008c1.187-1.2 2.006-3.126.46-4.673l-2.7-2.699a.457.457 0 0 0-.646.646l.672.673a.5.5 0 0 1 0 .706.499.499 0 0 1-.704 0l-1.57-1.57a.457.457 0 0 0-.646.646l1.121 1.122a.496.496 0 0 1 0 .705.499.499 0 0 1-.704 0l-1.57-1.57a.456.456 0 0 0-.643.004.456.456 0 0 0-.003.643l1.121 1.122a.497.497 0 0 1 0 .705.499.499 0 0 1-.704 0l-3.813-3.812a.457.457 0 0 0-.646.646l5.157 5.158c.162.161.193.41.076.606a.501.501 0 0 1-.57.224c-.018-.005-1.804-.517-2.652.33-.386.385-.443.623-.433.677.043.03.051.04.373.027.093-.008.195-.011.31-.011Z"/><path d="M7.366 16.226a.526.526 0 0 1-.327-.114 3.965 3.965 0 0 1-1.457-3.075A3.99 3.99 0 0 1 9.569 9.05c.59 0 1.148.124 1.66.368a.499.499 0 0 1-.43.9 2.825 2.825 0 0 0-1.23-.271 2.994 2.994 0 0 0-2.99 2.99c0 .885.39 1.717 1.07 2.286a.498.498 0 0 1-.283.903Z"/></g><defs><clipPath id="a"><path fill="#fff" transform="translate(.599 .08)" d="M0 0h23.92v23.92H0z"/></clipPath></defs></svg>