<svg width="260" height="96" fill="none" xmlns="http://www.w3.org/2000/svg"><g filter="url(#a)"><path fill="#051115" fill-opacity=".4" d="M11.71 49.133h235.865v20.278H11.71z"/><path d="M191.321 34.841c2.392 0 4.331-1.915 4.331-4.277 0-2.363-1.939-4.278-4.331-4.278-2.392 0-4.331 1.915-4.331 4.277 0 2.363 1.939 4.278 4.331 4.278Z" fill="#FF2400"/><path fill-rule="evenodd" clip-rule="evenodd" d="M7.57 48.816H252.38v14.456a13.603 13.603 0 0 1-3.963 9.546 13.4 13.4 0 0 1-9.493 3.946H21.021c-1.762.005-3.509-.34-5.139-1.015a13.407 13.407 0 0 1-4.362-2.922 13.524 13.524 0 0 1-2.919-4.38 13.605 13.605 0 0 1-1.031-5.175V48.817Zm20.936 20.488a6.039 6.039 0 0 0 3.012-.736 5.656 5.656 0 0 0 2.101-2.132l-1.793-1.147a4.077 4.077 0 0 1-1.347 1.391 3.655 3.655 0 0 1-1.973.507 4.006 4.006 0 0 1-1.665-.34 3.737 3.737 0 0 1-1.266-.932 4.167 4.167 0 0 1-.82-1.386 5.034 5.034 0 0 1-.29-1.706 5.106 5.106 0 0 1 .29-1.715c.18-.513.455-.987.81-1.396.351-.405.783-.73 1.267-.956a3.921 3.921 0 0 1 1.674-.349 3.702 3.702 0 0 1 1.9.438 3.735 3.735 0 0 1 1.42 1.345l1.803-1.18a5.644 5.644 0 0 0-2.187-2.065 6.289 6.289 0 0 0-2.936-.67 6.41 6.41 0 0 0-2.575.526 6.114 6.114 0 0 0-2.012 1.396 6.358 6.358 0 0 0-1.309 2.074 6.833 6.833 0 0 0-.474 2.552c-.01.88.141 1.756.446 2.581a5.84 5.84 0 0 0 1.273 2.061 5.785 5.785 0 0 0 1.995 1.36 6.789 6.789 0 0 0 2.656.479Zm16.33-10.624h3.828l-.033-2.137h-9.96v2.137h3.794v10.39h2.372V58.68Zm16.222 7.723 1.058 2.667h2.518L59.11 56.333h-1.04L52.607 69.07h2.462l1.048-2.667h4.942Zm12.247 2.667c1.518 0 2.646-.316 3.415-.956.383-.325.687-.735.887-1.197.2-.463.29-.966.265-1.47a3.036 3.036 0 0 0-.62-2.055 3.232 3.232 0 0 0-1.67-1.066c.46-.236.849-.59 1.128-1.027a3.324 3.324 0 0 0-.635-3.92 4.487 4.487 0 0 0-2.917-.836h-3.463V69.07h3.61Zm12.45-6.127 5.194 6.127h3.012l-5.526-6.438 5.313-6.089h-2.775l-5.218 5.917v-5.917h-2.371V69.07h2.371v-6.127Zm21.212 6.127h2.253l.028-12.641h-1.057l-6.978 8.01v-7.896H98.96v12.613H100l6.968-8.01v7.924Zm25.299 0h2.371l.015-12.527h-2.371v5.08h-5.867v-5.08h-2.372V69.07h2.372v-5.29h5.852v5.29Zm15.923-2.667 1.049 2.667h2.513l-5.526-12.737h-1.038l-5.465 12.722h2.463l1.057-2.652h4.947Zm22.393 2.9a6.055 6.055 0 0 0 3.021-.735h.009a5.654 5.654 0 0 0 2.115-2.136l-1.787-1.147a4.13 4.13 0 0 1-1.357 1.376 3.667 3.667 0 0 1-1.973.507 3.98 3.98 0 0 1-1.666-.34 3.769 3.769 0 0 1-1.27-.932 4.171 4.171 0 0 1-.816-1.386 4.908 4.908 0 0 1-.289-1.706 4.987 4.987 0 0 1 .289-1.716c.177-.513.45-.987.806-1.395a3.76 3.76 0 0 1 1.272-.956 3.888 3.888 0 0 1 1.674-.349 3.707 3.707 0 0 1 1.887.454 3.755 3.755 0 0 1 1.405 1.348l1.801-1.166a5.61 5.61 0 0 0-2.186-2.065 6.254 6.254 0 0 0-2.931-.669 6.41 6.41 0 0 0-2.58.511 6.16 6.16 0 0 0-2.011 1.396 6.343 6.343 0 0 0-1.309 2.074 6.916 6.916 0 0 0-.475 2.552c-.009.88.141 1.755.442 2.581.28.765.713 1.464 1.27 2.055a5.892 5.892 0 0 0 2.002 1.367 6.772 6.772 0 0 0 2.657.478Zm18.241-.233h2.33l.004-12.527h-10.164V69.07h2.371V58.68h5.459v10.39Zm18.797-1.644a6.17 6.17 0 0 0 1.318-2.07h.01a6.924 6.924 0 0 0 .465-2.566 7.302 7.302 0 0 0-.441-2.552 6.043 6.043 0 0 0-1.271-2.074 5.89 5.89 0 0 0-2.011-1.386 6.703 6.703 0 0 0-2.642-.502 6.386 6.386 0 0 0-2.552.502 6.178 6.178 0 0 0-2.012 1.386 6.318 6.318 0 0 0-1.318 2.074 6.936 6.936 0 0 0-.474 2.552 7.334 7.334 0 0 0 .441 2.566c.277.771.71 1.476 1.272 2.07a6.039 6.039 0 0 0 2.001 1.376 6.644 6.644 0 0 0 2.637.502 6.441 6.441 0 0 0 2.556-.502 6.273 6.273 0 0 0 2.021-1.376Zm11.141-2.639c1.476-.014 2.614-.396 3.406-1.147h.01a3.922 3.922 0 0 0 1.181-3.063 3.851 3.851 0 0 0-1.162-2.973c-.778-.707-1.912-1.06-3.401-1.06h-3.828v12.545h2.371v-4.302h1.423Zm15.706-6.107h3.827l-.01-2.137h-9.961v2.137h3.795v10.39h2.349V58.68Zm-29.86.415c.457.194.867.485 1.196.853.337.379.599.817.769 1.291.36 1.041.36 2.17 0 3.21-.17.475-.432.913-.769 1.292-.329.368-.739.66-1.196.853a3.865 3.865 0 0 1-1.558.305 3.787 3.787 0 0 1-1.551-.305 3.403 3.403 0 0 1-1.188-.853 3.871 3.871 0 0 1-.765-1.291 4.83 4.83 0 0 1 0-3.21c.168-.475.427-.914.765-1.292a3.402 3.402 0 0 1 1.188-.853 3.785 3.785 0 0 1 1.551-.305 3.863 3.863 0 0 1 1.558.305ZM56.949 64.16h3.292l-1.637-3.836-1.655 3.836Zm16.698-.317h-1.555v3.05h1.456a3.184 3.184 0 0 0 1.818-.415c.187-.134.335-.302.433-.492.098-.189.143-.394.132-.6a1.27 1.27 0 0 0-.128-.613 1.5 1.5 0 0 0-.417-.515 2.745 2.745 0 0 0-1.739-.415Zm70.538.317h3.073l-1.527-3.836-1.546 3.836Zm-69.449-3.327a1.32 1.32 0 0 1-.347.487c-.386.31-.877.461-1.372.423h-.925v-2.947h.925a2.08 2.08 0 0 1 1.372.382 1.282 1.282 0 0 1 .443 1.065c.014.201-.019.403-.096.59Zm144.066-2.037h-1.458v4.151h1.458a2.582 2.582 0 0 0 1.774-.54c.39-.408.609-.96.609-1.535s-.219-1.127-.609-1.536a2.59 2.59 0 0 0-1.774-.54Z" fill="#00CFA6"/><path d="M54.686 8.556a5.656 5.656 0 0 1-1.742 4.067 6.054 6.054 0 0 1-4.207 1.685 6.054 6.054 0 0 1-4.206-1.685 5.656 5.656 0 0 1-1.743-4.067c0-1.525.627-2.988 1.743-4.066a6.054 6.054 0 0 1 4.206-1.685c1.578 0 3.09.606 4.207 1.685a5.656 5.656 0 0 1 1.742 4.066ZM54.686 17.73H42.788v27.663h11.898V17.73ZM112.462 29.423V17.73H93.52v11.693h18.942Z" fill="#FF2400"/><path fill-rule="evenodd" clip-rule="evenodd" d="M23.608 34.831c8.858 0 16.039-7.17 16.039-16.013 0-8.843-7.181-16.013-16.039-16.013S7.57 9.975 7.57 18.818v26.575h11.602V18.818a4.433 4.433 0 0 1 4.436-4.429 4.433 4.433 0 0 1 4.436 4.43 4.433 4.433 0 0 1-5.46 4.31v11.67c.34.022.68.032 1.024.032ZM167.525 34.831c8.857 0 16.038-7.17 16.038-16.013 0-8.843-7.181-16.013-16.038-16.013-8.858 0-16.039 7.17-16.039 16.013v26.575h11.602V18.818a4.433 4.433 0 0 1 4.437-4.429 4.433 4.433 0 0 1 4.436 4.43 4.433 4.433 0 0 1-5.46 4.31v11.67c.338.022.68.032 1.024.032ZM90.094 18.818v26.575H78.492V19.16c0-1.175-.468-2.301-1.3-3.132a4.44 4.44 0 0 0-6.273 0 4.425 4.425 0 0 0-1.3 3.132v26.234H58.017V18.818c0-8.844 7.18-16.013 16.038-16.013s16.039 7.17 16.039 16.013ZM116.079 29.38V2.805h11.601V29.04c0 1.175.468 2.302 1.3 3.132a4.442 4.442 0 0 0 6.273 0 4.426 4.426 0 0 0 1.3-3.131V2.805h11.602V29.38c0 8.844-7.18 16.013-16.038 16.013s-16.038-7.17-16.038-16.013ZM228.299 22.796V2.806h8.711v19.733a3.334 3.334 0 0 0 3.33 3.332 3.33 3.33 0 0 0 3.33-3.332V2.806h8.711v19.99c0 6.652-5.392 12.045-12.041 12.045-6.65 0-12.041-5.393-12.041-12.045ZM207.585 34.841V9.28h2.722a3.74 3.74 0 0 1 2.647 1.099 3.751 3.751 0 0 1 0 5.301c-3.667 2.973-3.667 1.704-3.667 6.112v2.224l7.278 10.825h9.735l-8.972-13.53a9.716 9.716 0 0 0 5.57-8.793c0-5.364-4.343-9.713-9.698-9.713h-14.122v32.036h8.507Z" fill="#FF2400"/></g><defs><filter id="a" x=".424" y=".809" width="259.484" height="94.709" filterUnits="userSpaceOnUse" color-interpolation-filters="sRGB"><feFlood flood-opacity="0" result="BackgroundImageFix"/><feColorMatrix in="SourceAlpha" values="0 0 0 0 0 0 0 0 0 0 0 0 0 0 0 0 0 0 127 0" result="hardAlpha"/><feOffset dy="4.576"/><feGaussianBlur stdDeviation="2.288"/><feColorMatrix values="0 0 0 0 0 0 0 0 0 0 0 0 0 0 0 0 0 0 0.25 0"/><feBlend in2="BackgroundImageFix" result="effect1_dropShadow_71_608"/><feBlend in="SourceGraphic" in2="effect1_dropShadow_71_608" result="shape"/></filter></defs></svg>