<svg width="24" height="24" fill="none" xmlns="http://www.w3.org/2000/svg"><g clip-path="url(#a)" fill="#fff"><path d="M15.627 14.972c-.55 0-.998-.387-.998-.863 0-.477.448-.864.998-.864s.998.387.998.864a.454.454 0 0 0 .907 0c0-.832-.62-1.53-1.451-1.72v-.236a.454.454 0 1 0-.907 0v.236c-.833.19-1.452.889-1.452 1.72 0 .976.855 1.77 1.905 1.77.55 0 .998.388.998.864s-.448.863-.998.863-.998-.387-.998-.863a.454.454 0 0 0-.907 0c0 .83.62 1.53 1.452 1.72v.195a.454.454 0 0 0 .907 0v-.196c.832-.19 1.45-.888 1.45-1.72 0-.976-.854-1.77-1.904-1.77ZM20.595 12.274a5.91 5.91 0 0 0-2.414-2.136.453.453 0 1 0-.393.818 5.019 5.019 0 0 1 2.83 4.499c0 .816-.2 1.625-.58 2.34a.454.454 0 0 0 .8.426 5.908 5.908 0 0 0-.243-5.947ZM16.34 9.559h-.03a.454.454 0 0 0 0 .907H16.338a.454.454 0 0 0 .002-.907ZM13.47 19.954a5.019 5.019 0 0 1-2.83-4.5c0-.815.202-1.624.582-2.34a.454.454 0 0 0-.8-.425 5.908 5.908 0 0 0 .242 5.946 5.909 5.909 0 0 0 2.414 2.136.451.451 0 0 0 .605-.212.454.454 0 0 0-.212-.605ZM14.95 20.444h-.027a.453.453 0 1 0-.004.907h.03a.454.454 0 0 0 0-.907Z"/><path d="M17.689 8.026a2.081 2.081 0 0 0-.202-.37h1.18c1.151 0 2.087-.936 2.087-2.087 0-1.15-.936-2.086-2.086-2.086h-3.632c.231-.336.367-.742.367-1.18 0-1.15-.936-2.085-2.087-2.085H2.205c-1.15 0-2.086.935-2.086 2.086 0 1.15.936 2.086 2.086 2.086h3.632a2.074 2.074 0 0 0 0 2.358H4.654c-1.15 0-2.086.936-2.086 2.087 0 .66.309 1.25.79 1.632a2.083 2.083 0 0 0 0 3.266 2.083 2.083 0 0 0 0 3.265c-.481.383-.79.972-.79 1.633 0 1.15.936 2.086 2.086 2.086h5.345a7.69 7.69 0 0 0 5.63 2.45c4.252 0 7.71-3.46 7.71-7.71 0-3.54-2.396-6.528-5.65-7.431Zm.979-3.636a1.18 1.18 0 0 1 0 2.358H7.557a1.18 1.18 0 0 1-1.18-1.179c0-.65.53-1.179 1.18-1.179h11.11ZM2.205 3.483a1.18 1.18 0 0 1-1.18-1.18c0-.65.53-1.178 1.18-1.178h11.111c.65 0 1.18.529 1.18 1.179s-.53 1.179-1.18 1.179H2.205Zm2.449 4.172h11.111c.183 0 .358.043.515.119a7.686 7.686 0 0 0-6.106 2.24h-5.52a1.18 1.18 0 0 1-1.18-1.18c0-.65.53-1.179 1.18-1.179Zm0 3.266h4.745a7.689 7.689 0 0 0-1.166 2.358h-3.58A1.18 1.18 0 0 1 3.476 12.1c0-.65.529-1.18 1.179-1.18Zm0 3.265h3.37a7.728 7.728 0 0 0-.027 2.359H4.654a1.18 1.18 0 0 1-1.18-1.18c0-.65.53-1.179 1.18-1.179Zm0 5.624a1.18 1.18 0 0 1-1.18-1.18c0-.65.53-1.178 1.18-1.178h3.528A7.68 7.68 0 0 0 9.27 19.81H4.654Zm10.975 2.45a6.81 6.81 0 0 1-6.803-6.804 6.81 6.81 0 0 1 6.803-6.803 6.81 6.81 0 0 1 6.803 6.803 6.81 6.81 0 0 1-6.803 6.803Z"/></g><defs><clipPath id="a"><path fill="#fff" transform="translate(.119 .08)" d="M0 0h23.221v23.221H0z"/></clipPath></defs></svg>