<svg width="54" height="54" fill="none" xmlns="http://www.w3.org/2000/svg"><g clip-path="url(#a)" fill="#051115"><path d="M35.472 34.404c-1.255 0-2.276-.883-2.276-1.97 0-1.086 1.02-1.97 2.276-1.97 1.255 0 2.276.884 2.276 1.97a1.035 1.035 0 0 0 2.07 0c0-1.896-1.413-3.49-3.312-3.923v-.538a1.035 1.035 0 0 0-2.069 0v.538c-1.898.433-3.31 2.027-3.31 3.923 0 2.228 1.949 4.04 4.345 4.04 1.255 0 2.276.884 2.276 1.97 0 1.086-1.021 1.97-2.276 1.97s-2.276-.884-2.276-1.97a1.035 1.035 0 0 0-2.07 0c0 1.896 1.413 3.49 3.311 3.923v.447a1.035 1.035 0 0 0 2.07 0v-.447c1.898-.433 3.31-2.027 3.31-3.923 0-2.227-1.95-4.04-4.345-4.04ZM46.806 28.25a13.48 13.48 0 0 0-5.507-4.873 1.035 1.035 0 1 0-.896 1.865c3.922 1.885 6.456 5.914 6.456 10.263 0 1.862-.458 3.707-1.326 5.338a1.035 1.035 0 1 0 1.827.972 13.478 13.478 0 0 0 1.569-6.31c0-2.582-.734-5.09-2.123-7.255ZM37.1 22.055h-.07a1.035 1.035 0 0 0 0 2.069h.064a1.035 1.035 0 0 0 .005-2.07ZM30.552 45.769c-3.922-1.886-6.457-5.915-6.457-10.264 0-1.861.46-3.707 1.327-5.338a1.035 1.035 0 1 0-1.827-.972 13.478 13.478 0 0 0-1.569 6.31c0 2.582.734 5.091 2.123 7.255a13.482 13.482 0 0 0 5.507 4.874 1.035 1.035 0 0 0 .896-1.865ZM33.925 46.887h-.06a1.034 1.034 0 1 0-.01 2.069h.07a1.035 1.035 0 0 0 0-2.07Z"/><path d="M40.175 18.556c-.126-.3-.28-.582-.46-.845h2.694a4.765 4.765 0 0 0 4.76-4.759 4.765 4.765 0 0 0-4.76-4.76h-8.285a4.731 4.731 0 0 0 .835-2.69A4.765 4.765 0 0 0 30.2.743H4.851a4.765 4.765 0 0 0-4.76 4.76 4.765 4.765 0 0 0 4.76 4.759h8.285a4.732 4.732 0 0 0-.835 2.69c0 .998.309 1.924.835 2.69h-2.698a4.765 4.765 0 0 0-4.76 4.76c0 1.507.706 2.852 1.803 3.724a4.752 4.752 0 0 0 0 7.45 4.752 4.752 0 0 0 0 7.45 4.752 4.752 0 0 0-1.802 3.724 4.765 4.765 0 0 0 4.76 4.76h12.193c3.212 3.435 7.781 5.587 12.845 5.587 9.699 0 17.59-7.89 17.59-17.59 0-8.071-5.467-14.89-12.892-16.95Zm2.234-8.294a2.693 2.693 0 0 1 2.69 2.69 2.693 2.693 0 0 1-2.69 2.69H17.06a2.693 2.693 0 0 1-2.69-2.69 2.693 2.693 0 0 1 2.69-2.69h25.35ZM4.851 8.192a2.693 2.693 0 0 1-2.69-2.69 2.693 2.693 0 0 1 2.69-2.69h25.35a2.693 2.693 0 0 1 2.69 2.69 2.693 2.693 0 0 1-2.69 2.69H4.85Zm5.587 9.52h25.35c.416 0 .815.096 1.173.27a17.535 17.535 0 0 0-13.931 5.11H10.438a2.693 2.693 0 0 1-2.69-2.69 2.693 2.693 0 0 1 2.69-2.69Zm0 7.449h10.824a17.54 17.54 0 0 0-2.66 5.38h-8.164a2.693 2.693 0 0 1-2.69-2.69 2.693 2.693 0 0 1 2.69-2.69Zm0 7.45h7.69a17.637 17.637 0 0 0-.064 5.38h-7.626a2.693 2.693 0 0 1-2.69-2.69 2.693 2.693 0 0 1 2.69-2.69Zm0 12.83a2.693 2.693 0 0 1-2.69-2.69 2.693 2.693 0 0 1 2.69-2.691h8.048a17.52 17.52 0 0 0 2.483 5.38h-10.53Zm25.039 5.587c-8.558 0-15.52-6.963-15.52-15.52 0-8.558 6.962-15.52 15.52-15.52s15.52 6.962 15.52 15.52c0 8.557-6.962 15.52-15.52 15.52Z"/></g><defs><clipPath id="a"><path fill="#fff" transform="translate(.092 .43)" d="M0 0h52.975v52.975H0z"/></clipPath></defs></svg>