<svg width="53" height="54" fill="none" xmlns="http://www.w3.org/2000/svg"><g clip-path="url(#a)" fill="#051115"><path d="M52.878 43.317a4.476 4.476 0 0 0-1.98-2.878 4.478 4.478 0 0 0-3.443-.6l-5.521 1.264v-2.258a21.809 21.809 0 0 0 3.08-3.65 21.398 21.398 0 0 0 3.025-7.123c.677-3.026.691-6.23.042-9.265a1.034 1.034 0 1 0-2.024.433 19.731 19.731 0 0 1-.037 8.38 19.337 19.337 0 0 1-2.734 6.437 18.432 18.432 0 0 1-1.352 1.784V24.373c0-.572-.463-1.035-1.035-1.035h-8.184V12.29c0-.57-.462-1.033-1.032-1.035l-9.219-.03h-.003a1.032 1.032 0 0 0-1.035 1.034v5.748H13.24c-.57 0-1.034.463-1.034 1.034v10.246H9.9v-1.405c0-.571-.463-1.034-1.034-1.034H7.804a19.563 19.563 0 0 1-.31-3.014 19.436 19.436 0 0 1 1.806-8.71 1.035 1.035 0 0 0-1.876-.873 21.513 21.513 0 0 0-1.999 9.634c.025.99.12 1.982.28 2.963H1.034c-.572 0-1.035.463-1.035 1.034v18.187c0 .571.463 1.035 1.035 1.035h7.832c.571 0 1.034-.464 1.034-1.035v-.984h3.892l15.766 6.184a12.47 12.47 0 0 0 7.658.479l12.357-3.141a4.502 4.502 0 0 0 3.305-5.289Zm-13.013-17.91v16.17l-2.766.633a10.505 10.505 0 0 1-4.37.063l-.014-.003V40.7c.788-1.176 1.05-2.669.636-4.03a4.641 4.641 0 0 0-.634-1.31l-.002-.004v-9.949h7.15Zm-16.37-12.11 7.15.023v20.393l-3.995-1.654-3.154-1.306V13.296Zm-9.22 6.778h7.15v9.82l-1.283-.53a1.032 1.032 0 0 0-.396-.08h-5.471v-9.21ZM7.83 45.033H2.068V28.916H7.831v16.117ZM49.063 46.6l-12.357 3.141a10.398 10.398 0 0 1-6.392-.4l-15.948-6.255a1.033 1.033 0 0 0-.378-.07H9.9v-11.66h9.64l6.695 2.77 3.663 1.517c1.296.537 1.916 2.058 1.385 3.352-.107.26-.239.507-.414.727a2.667 2.667 0 0 1-2.712.936l-.024-.006a2.584 2.584 0 0 1-.179-.052l-6.962-2.676-.086-.033a1.035 1.035 0 1 0-.742 1.931s3.925 1.51 6.918 2.664a4 4 0 0 0 .18.065l2.299.884c.695.267 1.386.533 2.11.718a12.49 12.49 0 0 0 3.767.37 12.62 12.62 0 0 0 2.123-.296l3.57-.817.01-.003 6.776-1.551a2.422 2.422 0 0 1 1.863.324c.557.358.937.91 1.072 1.558a2.436 2.436 0 0 1-1.789 2.862ZM13.23 9.135c.247 0 .495-.089.692-.267A19.667 19.667 0 0 1 20.3 5.02a19.708 19.708 0 0 1 7.99-1.135c1.936.128 3.834.541 5.64 1.23a1.034 1.034 0 1 0 .737-1.934 21.47 21.47 0 0 0-6.242-1.36 21.79 21.79 0 0 0-8.834 1.255 21.754 21.754 0 0 0-7.054 4.255 1.034 1.034 0 0 0 .693 1.803Z"/><path d="M36.717 16.518a1.034 1.034 0 0 0 1.46-.102l8.513-9.8a1.034 1.034 0 1 0-1.562-1.357l-8.513 9.8a1.034 1.034 0 0 0 .102 1.459ZM44.345 12.095a2.6 2.6 0 0 0-2.597 2.597 2.6 2.6 0 0 0 2.597 2.598 2.6 2.6 0 0 0 2.598-2.598 2.6 2.6 0 0 0-2.598-2.597Zm0 3.125a.529.529 0 1 1 0-1.057.529.529 0 0 1 0 1.057ZM38.6 9.792a2.6 2.6 0 0 0 2.598-2.598A2.6 2.6 0 0 0 38.6 4.597a2.6 2.6 0 0 0-2.598 2.597A2.6 2.6 0 0 0 38.6 9.792Zm0-3.126a.529.529 0 1 1-.002 1.058.529.529 0 0 1 .002-1.058ZM9.553 11.566c.166.398.573.66 1.005.638.428-.022.802-.311.934-.717a1.043 1.043 0 0 0-.354-1.137 1.046 1.046 0 0 0-1.204-.04c-.406.27-.568.807-.381 1.256Z"/></g><defs><clipPath id="a"><path fill="#fff" transform="translate(0 .43)" d="M0 0h52.975v52.975H0z"/></clipPath></defs></svg>